<?xml version="1.0" standalone="no"?>
<!DOCTYPE svg PUBLIC "-//W3C//DTD SVG 20010904//EN"
 "http://www.w3.org/TR/2001/REC-SVG-20010904/DTD/svg10.dtd">
<svg version="1.0" xmlns="http://www.w3.org/2000/svg"
 width="700.000000pt" height="700.000000pt" viewBox="0 0 700.000000 700.000000"
 preserveAspectRatio="xMidYMid meet">
<metadata>
Created by potrace 1.14, written by Peter Selinger 2001-2017
</metadata>
<g transform="translate(0.000000,700.000000) scale(0.100000,-0.100000)"
fill="#000000" stroke="none">
<path d="M2679 6426 c-2 -2 -56 -7 -119 -11 -63 -3 -128 -8 -145 -10 -16 -2
-57 -6 -89 -10 -59 -6 -74 -7 -171 -20 -27 -4 -61 -9 -75 -10 -14 -2 -38 -6
-55 -9 -16 -3 -50 -8 -75 -11 -25 -4 -106 -17 -180 -30 -177 -32 -183 -33
-265 -50 -38 -8 -81 -17 -95 -19 -156 -28 -482 -109 -650 -162 -346 -109 -555
-232 -612 -362 -37 -84 -24 -227 33 -348 30 -65 112 -155 160 -176 27 -12 35
-24 47 -68 8 -31 10 -447 2 -510 -4 -36 -11 -103 -15 -150 -4 -47 -8 -96 -10
-110 -1 -14 -6 -54 -10 -90 -3 -36 -8 -76 -10 -90 -2 -14 -7 -52 -10 -85 -3
-33 -8 -76 -10 -95 -3 -19 -7 -57 -10 -85 -3 -27 -7 -66 -10 -85 -2 -19 -14
-111 -25 -205 -11 -93 -22 -186 -25 -205 -2 -19 -7 -55 -10 -80 -3 -25 -7 -61
-10 -80 -3 -19 -7 -54 -10 -77 -8 -67 -13 -109 -40 -318 -8 -66 -17 -140 -20
-165 -3 -25 -7 -61 -10 -80 -3 -19 -8 -55 -10 -80 -2 -25 -7 -61 -9 -80 -9
-57 -22 -164 -31 -250 -3 -30 -8 -66 -10 -80 -2 -14 -7 -54 -10 -90 -3 -36 -8
-72 -10 -80 -2 -8 -7 -51 -10 -94 -4 -43 -8 -86 -10 -95 -1 -9 -6 -50 -9 -91
-4 -41 -9 -86 -11 -100 -3 -14 -7 -59 -11 -100 -3 -41 -8 -88 -10 -105 -2 -16
-6 -106 -8 -200 -6 -248 23 -364 117 -471 148 -168 480 -179 640 -21 70 68
134 177 152 257 2 8 8 34 13 58 6 23 11 104 12 180 3 213 12 423 25 597 3 33
7 92 10 130 3 39 7 93 10 120 2 28 7 75 10 105 12 139 14 151 30 310 2 14 3
39 4 56 1 29 5 33 49 44 60 17 51 14 97 25 22 5 42 9 45 10 62 15 306 68 360
79 121 23 448 103 564 137 38 11 77 22 88 24 37 8 377 124 504 173 504 196
969 457 1329 746 102 83 263 238 348 336 174 200 318 490 371 747 58 275 26
604 -78 798 -9 17 -16 33 -16 37 0 17 -123 188 -172 238 -206 212 -496 372
-823 454 -105 26 -260 54 -350 62 -33 3 -71 8 -85 11 -27 6 -575 14 -581 9z
m426 -760 c145 -10 170 -14 320 -53 322 -82 492 -294 481 -598 -2 -55 -6 -109
-9 -120 -78 -310 -339 -585 -812 -855 -98 -56 -425 -220 -438 -220 -3 0 -35
-13 -70 -30 -36 -16 -71 -30 -79 -30 -8 0 -18 -4 -23 -9 -18 -15 -329 -125
-495 -175 -166 -49 -443 -118 -530 -132 -19 -3 -38 -8 -41 -10 -4 -2 -24 -6
-45 -10 -22 -3 -59 -10 -84 -15 -25 -6 -65 -13 -88 -16 l-44 -5 7 63 c4 35 8
71 10 79 2 8 6 47 9 85 4 39 9 84 11 100 4 27 11 90 21 185 2 19 5 53 8 75 12
99 19 162 21 180 3 35 17 159 20 185 2 14 7 52 10 85 9 85 14 124 19 170 3 22
7 67 11 100 3 33 8 71 10 85 3 24 17 149 20 180 1 8 5 49 9 90 5 41 10 86 11
100 2 14 6 45 9 70 3 25 8 68 11 95 10 90 -23 72 312 170 84 25 163 47 175 49
13 3 70 16 128 30 58 13 125 27 150 31 24 4 47 8 50 10 3 2 26 6 50 9 25 4 56
9 70 11 46 9 85 14 145 20 33 4 74 9 90 11 17 2 86 7 155 10 69 4 126 7 127 8
4 3 213 -3 288 -8z"/>
<path d="M6545 6329 c-27 -5 -70 -16 -95 -25 -96 -36 -423 -206 -450 -234 -3
-3 -23 -19 -45 -35 -158 -118 -352 -352 -509 -612 -130 -218 -181 -360 -193
-538 -7 -121 19 -218 107 -390 155 -307 304 -471 465 -514 75 -20 157 -22 214
-5 111 32 247 213 258 343 8 87 -17 150 -157 405 -18 32 -38 79 -45 105 -23
89 2 248 56 351 46 86 68 107 179 167 74 39 178 115 245 178 72 68 127 108
229 166 70 40 161 126 177 166 23 56 21 96 -4 144 -52 96 -177 238 -256 289
-57 36 -112 48 -176 39z"/>
</g>
</svg>
