<?xml version="1.0" encoding="UTF-8"?>
<svg id="Ebene_1" data-name="Ebene 1" xmlns="http://www.w3.org/2000/svg" viewBox="0 0 1000 1000">
  <defs>
    <style>
      .cls-1 {
        fill: #3f93a1;
      }
    </style>
  </defs>
  <g id="logo">
    <path class="cls-1" d="m993.39,457.25c-3.39-29.78-8.67-59.47-20.47-87.15-13.24-39.44-36.69-74.9-58.09-110.33-27.64-39.24-61.69-73.07-99.22-102.81-22.57-17.16-42.72-38.4-69.55-48.89-20.14-8.14-37.93-21.37-59.04-27.33-43.51-12.73-87.66-23.98-133.23-24.78-56.36-7.84-113.86-3.29-169.2,9.29-99.08,24.1-184.64,66.25-257.79,137.56-35.44,40.19-63.9,86.91-85.76,135.81-11.42,21.53-17.9,45.15-27.14,67.62-3.95,8.73-5.39,18.24-7.54,27.5-1.39,26.6-4.51,53.3-6.08,79.96-1.86,36.33,3.82,72.41,4.67,108.69.78,1.57-.87,35.03,3.56,26.68-2.75-59.94-8.22-119.95-.59-179.83,1.85-19.69,5.96-38.91,12.01-57.71,7.61-19.61,17.07-38.44,24.45-58.15,8.49-24.26,25.24-43.56,38.94-64.85,7.69-14.08,16.01-27.86,26.21-40.33,5.74-6.52,10.35-13.75,14.71-21.21,5.74-5.91,11.61-11.66,17.88-17.02,9.75-7.55,17.36-17.44,26.85-25.26,10.67-8.09,21-16.62,31.49-24.95,86.22-56.66,188.15-90.17,291.5-93.51,29.74-.56,59.04,4.96,88.28,9.62,29.6,3.24,57.7,13.55,85.91,22.55,26.14,8.79,47.86,26.35,72.1,39.03,27.27,18.4,53.04,39.89,77.45,62.03,64.35,66.48,111.16,150.04,132.61,240.16,8.53,30.49,9.93,62.2,12.39,93.6,1.92,27.5,3.52,55.05,1.12,82.59-7.17,100.78-32.64,146.65-93.7,224.41-26.41,24.99-58.75,44-87.24,66.87-22.88,14.22-50.68,18.44-76.13,26.53-13.01,3.67-26.51,3.1-39.89,2.39-31.78-2.13-69.16-6.16-90.19-32.96-12.58-19.63-25.52-39.02-38.21-58.58-4.23-11.25-1.26-24.51-2.54-36.49.16-26.11-3.11-52.79-.6-78.63,3.6-10.33-1.83-13.77-4.96-21.8-.78-21-1.52-42-2.22-63.01-.46-11.89-.64-23.78-1.28-35.67-1.39-5.51,8.33-2.66,12-3.92,3.26-.14,3.78-2.77,2.59-5.39-6.78-18.22-13.55-36.45-20.35-54.67-29.57-77.23-56.78-155.53-87.43-232.26-.84-4.93-.4-10.36,0-15.38.41-2.94.49-2.9,3.58-3.14,3.16-.53,10.03.33,9.66-4.3-.93-6.24-13.06,1.41-12.93-4.06-1.14-4.57,3.43-14.19-3.32-15.16-4.75,1.74-2.61,10.97-3.33,15.62.19,4.01-5.35,2.12-7.81,3.19-5.01.65-4.04,6.95.83,6.3,2.67-.09,7.99-1.81,6.72,2.7-1.32,3.67,1.65,13.13-2.27,13.98-14.15.64-28.34,1.24-42.5,1.29-4.51.64-2.29-10.09-3.39-13.06-.72-6.23.08-12.5-.84-18.71-.25-1.66.47-2.33,2.22-2.51,5.09-.8,14.6,1.54,15.4-5.69-.52-7.54-10.1-4.89-15.18-4.77-8.07.79,2.07-25.75-8.54-26.64-9.97.08-4.18,16.94-5.13,23.86.26,3.25-.08,3.8-3.4,3.98-5.07.51-14.84-1.28-14.89,6.12.86,7.57,10.41,3.85,15.5,4.25,2.88-.1,3.56.46,3.61,3.37.11,6.34.22,12.68.64,19.02-.7,3.29,2.73,11.93-1.84,11.34-14.78.36-29.51,1.31-44.3,1.24-1.14,0-2.33-.11-2.43-1.58.7-3.14-2.92-13.78,1.12-14.41,3.51-1.15,11.84.25,11.64-4.93-1.35-4.65-7.73-1.68-11.16-1.64-7.03,2.04.56-17.35-7.19-17.56-7.67,1.46,2.25,18.1-4.85,19.23-3.01.42-9.27.53-8.63,4.56.34,1.72,2.16,2.71,4.48,2.42,2.61.2,7.14-2.68,7.33,1.53-.02,2.77,2.36,13.37-1.21,12.89-7.07.26-6.68,11.26-9.69,16.22-19.74,53.52-39.43,107.06-59.3,160.54-1.62,4.47-4.97-4.36-7.86-4.48-1.24-.61-2.64-.75-3.68.13-9.68,4.67-17.04,8.88-20.04,20.18-4.18,10.26,3.18,20.1,3.38,30.2-.96,23.46-.97,47.01-1.21,70.51,1.69,7.71-15.2,1.27-20.16,5.96-23.88,21.58,10.45,26.57,9.02,47.53-1.93,85.26-3.84,170.5-5.85,255.77-.22,2.29,1.05,3.72,2.95,4.72,1.43.75,1.85.58,2.32-1,.9-3.05.27-6.34,1.47-9.35,1.25-62.42,2.58-125.29,3.71-187.87.67-20.4.76-40.85,1.36-61.27,1.12-11.98-7.29-19.5-13.24-28.63-3.24-5.25-1.87-15.07,5.13-15.94,7.82-.35,15.64-.86,23.46-1.08,28.43-1.09,56.85-2.38,85.27-3.54,30.21-1.16,60.42-2.63,90.63-3.66,3.89.68,21.78-3.58,20.65,2.11.84,23.01.41,46.01,1.03,69.02.89,68.43,1.5,136.87,2.39,205.32,1.37,4.43-2.62,45.76,3.31,42.43,5.64,1.52,1.66-32.33,2.39-39.26-.87-56.32-1.15-112.7-1.85-169.02-.36-5.1,38.33-3.05,44.9-4.85,12.43-1.07,24.85-2.42,37.31-3.25,8.4-.95,23.35-3.19,20.22,10.07-5.31,11.78-2.68,24.95-2.68,37.53.7,24.37,1.1,48.76,1.78,73.15,1.28,31.04.6,62.24,2.77,93.28.22,2.29.56,2.8,2.71,3,3.64.34,4.95-.77,4.88-4.46-.12-6.94-.29-13.88-.42-20.82.08-13.97-1.64-28.32-.47-42.11,9.49,13.69,16.09,29.92,26.94,42.99,8.86,10.02,16.42,22.53,29.46,27.42,38.91,18.06,82.91,17.14,124.26,9.45,21.21-2.27,40.91-11.12,61-17.77,20.31-5.84,37.29-18.72,55.28-29.32,13.98-9.28,24.62-22.74,39.14-31.44,4.21-2.84,8.26-5.96,11.36-10,25.66-34.34,53.3-67.72,72.61-106.22,20.47-40.78,30.76-86.35,37.36-131.34,8.99-52.92,7.94-106.61.15-159.63Zm-576.04,145.91c-1.28,1.84-4.35,1.25-6.36,1.57-6.36-.09-12.68.55-19.02.71-30.5,1.07-61.01,2.44-91.51,3.74-4.85.23-9.71.37-14.56.49-2.91.07-3.05.03-2.81-3,.84-8.77,1.25-17.65,3.51-26.2.99-3.68,2.59-7.68,6.66-8.79,4.39-1.05,2.76-6.15-1.27-5.44-17.56,4.68-12.12,27.03-14.81,40.67-.38,3.28-.47,3.09-3.89,3.39-13.27.62-26.53,1.09-39.81,1.7-4.55.24-9.11.45-13.66.57-3.18.09-3.53-.18-3.4-3.32.58-13.48.19-26.99.72-40.46.43-11.11.23-22.22.46-33.32-2.99-12.28-6.62-21.53,1.86-32.83,15.72-17.84,13.6,4.05,21.79-3.09,6.8-1.28,14.41-34.77,18.67-42.9,7.36-18.65,14.11-37.5,20.94-56.34,7.66-18.41,12.91-37.74,20.98-55.97.28-.58,6.17-23.91,8.2-23.91,32.26.81,66.91-.5,99-1.86,0,.02,0,.03,0,.05,2.01.02,5.22-.51,5.2,2.26.17,1.6-.95,1.73-2.06,1.91-19.41,1.64-38.93,2.58-58.36,4.16-2.88.52-20.42-.64-13.87,7.79,23.76-.28,47.51-1.11,71.24-1.85,3.14.07,3.28.15,3.33,3.4-.15,2.39.92,6.24-2.73,5.9-18.41.12-36.82.98-55.22,1.33-5.03.51-11.57.64-16.32.57-3.45.35-4.46,4.96-1.49,6.69,20.65-1.28,41.4-1.15,62.09-1.91,4.25.02,9.86-1.6,13.31.31.16,1.46-1.79,1.28-2.79,1.37-16.14.26-32.26,1.3-48.4,1.99-7.32.38-14.64.56-21.96,1.04-2.79-.45-5.14.81-4.97,3.66.34,3.44,3.77,2.98,6.27,2.53,7.05.1,14.07-.52,21.09-.84,15.13-.61,30.27-1.26,45.41-2.14,1.76.21,5.37-1.06,5.66,1.5.02,2.6-3.6,1.86-5.37,2.32-16.92.93-33.79,2.4-50.69,3.48-7.64,1.77-20.06-1.48-20.48,4.47-.03,6.26,18.58.96,23.44,1.75,17.35-.99,34.78-3.4,52.12-3.35,1.91.72.5,2.95-1.14,2.61-16.89.79-33.78,2.26-50.69,3.03-7.75,1.22-31.65-1.52-22.23,7.87,22.38-1.7,44.85-3,67.28-4.2,2.56.34,8.28-2.36,8.36,1.71.55,5.58.3,5.82-5.29,5.99-23.26.73-46.52,2.22-69.73,2.96-3.93.67-3.19,6.76.76,6.52,13.31-.93,26.73-1.09,40.09-1.78,10.37-.58,20.82-.69,31.16-1.56,2.55-.14,2.99.29,3.07,2.75.04,2.26.02,3.69-2.58,3.6-23.81.09-47.63-.05-71.45.05-2.96.17-4.18,2.1-3.15,4.9.87,2.27,3.67,1.46,5.57,1.65,23.32.07,46.64-.12,69.95.08,1.91-.13,2,2.72.1,2.71-24.45,2.41-48.93,4.59-73.37,7.09-1.43.15-2.01.81-1.99,2.34.05,3.65.51,4.04,4.21,3.67,24.02-1.52,48.35-5.87,72.22-5.91-.67,1.27-1.72,1.12-2.65,1.21-23.86,2.37-47.81,4.05-71.65,6.56-1.28.14-1.9.77-2.05,2.09-.34,3.1.1,3.7,3.29,3.46,23.5-1.9,46.98-4.03,70.49-5.91,1.11-.08,2.54-.48,2.92,1.21-.93,3.93-8.91,1.51-12.23,2.64-17.69,1.1-35.39,2.18-53.07,3.58-3.72.93-12.13-1.95-11.3,4.42-.36,4.67,11.89,1.34,15.09,1.63,18.74-1.6,37.57-2.26,56.33-3.91,5.72-.54,6.59.39,5.88,6.12-1.35,5.31-33.6,1.17-40.73,2.7-11.11.41-22.21.34-33.31.53-3.36-.73-3.97,3.32-2.77,5.67,1.31,1.6,4.11.73,5.96.87,20.99-1.03,42.04-.65,63.05-1.09,2.47.45,8.21-1.61,7.82,2.45-.07,1.62-.5,2.02-2.53,2.1-23.79.31-47.58,1.22-71.34,1.91-4-1.03-4.23,7.31-.23,6.55,21.16-1.04,42.41-1.08,63.6-1.81,3.07.29,8.01-1.88,10.22.55-1.44,2.68-10.9.38-14.25,1.28-19.82.6-39.62,1.12-59.44,1.78-3.92-.8-3.89,7.72.18,6.5,20.66-1.13,41.42-.95,62.12-1.81,3.11.55,11.65-2.78,11.74,2.01-.23,3.54-5.38,1.97-7.84,2.67-13.86.44-27.69,1.53-41.54,2.31-8.22.49-16.43.82-24.63,1.37-2.27.05-2.8.8-2.58,3,.26,1.31.11,3.54,2.04,3.29,24.14-1.35,48.28-2.71,72.42-3.88,2.45-.04,2.5.01,2.62,2.42.24,4.53.07,4.71-4.44,4.71-23.02.01-46.04-.01-69.06,0-2.93.08-3.25.41-3.26,3.28,0,2.95.32,3.29,3.53,3.3,23.02.02,46.04,0,69.06.01,1.49.14,4.02-.55,4.11,1.67-.44,3.18-5.42,1.62-7.78,2.34-13.47.48-26.9,1.45-40.35,2.34-8.6.5-17.23.75-25.82,1.38-2.31.17-2.89,1.1-2.64,3.96.18,2.13.88,2.68,3.14,2.49,6.12-.52,12.25-.82,18.39-1.12,18.09-.32,37.36-3.89,54.9-2.4-.59,2.07-4.32,1.11-6.13,1.69-16.69,1.33-33.38,2.57-50.09,3.68-4.78,1.42-19.17-1.47-19.53,4.92,1.46,5.78,17.09.67,22.09,1.23,15.72-.99,31.42-2.22,47.12-3.54,3.54-.22,7.79-1.19,6.85,3.92.33,4.11-9.18,2.09-12.13,2.82-8.83.03-17.64.55-26.46.82-28.23.96-56.5,1.26-84.7,2.77-19.43.3-38.87.8-58.26,1.87-3.12.31-3.92,1.4-3.11,4.5.75,2.86.75,2.85,3.68,2.82,32.86-1.32,65.83-1.24,98.59-4,2.04-.29,4.36-.9,6.14,1.1,6.21.69,13.09-.7,19.5-.73,18-1.06,35.98-2.3,54.01-2.94,2.15-.07,2.83.63,2.72,2.2.22,3.43-17.8,1.48-21.55,2.6-17.11.61-34.22,1.66-51.36,2.29-4.19-.63-5.63,5.77-1.22,6.42,22.1-.81,44.34-2.06,66.5-2.86,2.39.27,7.08-2.09,8.08,1.04-.36,3.43-6.57,1.72-9.17,2.49-21.95,1.3-43.92,2.35-65.88,3.61-3.78-.79-4.15,7.31-.26,6.48,17.5-1.15,35.01-1.98,52.52-2.93,2.54.64,25.35-3.37,21.93.65-19.08,2.4-38.48,3.45-57.67,5.28-4.58,1.4-17.25-1.22-17.91,4.74-.02,6.26,23.23.12,28.42.72,13.61-1.25,27.23-2.48,40.86-3.59,2.89-.03,8.06-2.12,7.32,2.74.08,5.25-.05,4.67-4.57,5.01-17.08,1.36-34.14,2.99-51.24,4.13-6.91.55-13.82,1.17-20.73,1.76-2.97-.22-3.08,3.78-2.13,5.78,25.35.15,51.98-4.56,77.69-5.44,1.82,1.13-.73,2.17-1.87,2.01-23.51,2.86-47.03,5.67-70.56,8.35-5.1-.32-5.99,6.66-.49,6.31,23.95-2.53,47.83-5.65,71.75-8.38,1.34-.16,2,.32,2.22,1.7.5,3.12.06,3.66-3.04,3.91-9.28.73-18.56,1.55-27.84,2.29-15.42,1.12-30.82,2.36-46.22,3.72-2.42.21-3.84,3.55-2.46,5.66,10.75,1.18,22.74-1.64,33.86-2.01,12.34-1.06,24.68-2.04,37.03-2.97,2.86.32,9.37-2.72,9.13,2.04.03,2.1.16,3.91-2.39,3.79-12.96.74-25.91,1.56-38.86,2.31-12.17.55-24.35,1.08-36.51,1.91-2.07.13-2.35.46-2.65,2.43-.82,5.34-.79,5.66,4.54,5.2,23.66-1,47.31-1.81,70.99-2.88,2.87-.39,6.25.73,4.76,4.24Zm6.64-60.66c-1.67-56.46-2.18-112.99-3.33-169.44.01-.58-2.97-55.07-1.15-56.14,1.82-1.08,6.92-.03,7.15,0,2.9,2.1,23.88,62.38,24.66,63.5,17.65,47.18,35.31,94.36,52.95,141.55,9.27,24.8,18.51,49.62,27.76,74.43.6,1.34,1.08,3.03-.95,3.07-27.38,1.47-54.84,2.44-82.25,3.52-4.46-.77-22.62,3.52-23.46-1.33-.53-19.7-.8-39.44-1.38-59.15Zm95.61,164.25c-11.13,1.09-22.36,1.11-33.51,2.15-19.38.78-38.77,2.48-58.16,3.11-3.02.35-2.61-2.24-2.65-4.45,0-15.67,0-31.35,0-47.02h.08c.02-16.17-.04-32.34.02-48.5.16-1.86.47-2.28,2.36-2.3,10.89-.6,21.78-.83,32.68-1.34,18.32-.73,36.64-1.64,54.95-2.26,3.23.01,3.74.52,3.92,3.78-.14,9.92.54,19.82.81,29.73.71,21.29,1.49,42.58,2.22,63.87,0,2.73-.12,2.82-2.71,3.23Z"/>
    <path class="cls-1" d="m382.38,696.12c-8.89-6.51-2.86,16.53-4.56,19.83-9.07-6.47-17.35-15.14-25.56-22.97-2.01-1.4-3.88-5.1-6.65-4.15-6.81,3.64,3.77,9.12,6.35,12.21,8.71,7.81,17.36,15.68,26.04,23.52,2.63,3.2,6.86,1.38,6.24-2.74-.76-8.48.1-17.47-1.86-25.7Z"/>
    <path class="cls-1" d="m310.44,775.04c-.26-6.21.54-12.58-.35-18.71-2.03-4.24-6.25-.37-5.59,3.09.45,11.32-.94,22.99.55,34.15,8.15,8.24,4.73-14.85,5.39-18.53Z"/>
    <path class="cls-1" d="m306.69,703.49c.02-10.03-.47-20.18-1.25-30.17-.74-2.96-4.75-2.82-5.25.03-.36,2.62-.08,5.33-.16,7.98.52,7.47.52,15.06,1.27,22.47.63,3.02,5.08,2.76,5.39-.3Z"/>
    <path class="cls-1" d="m414.24,769.3c.46.35.94.95,1.5.36.42-2.17-2.78-4.09-3.88-5.93-3-2.94-9.09.09-6.04,4.27,2.71,4.34,4.87,9.09,7.94,13.17.9.92,1.96,1.33,3.2.64,4.13-3.51-2.65-9.02-3.89-12.81.69-.35.89.09,1.17.3Z"/>
    <path class="cls-1" d="m360.27,674.47c3.94-3.72-7.13-13.44-8.87-17.64-1.35-3.05-6.14-3.38-5.89.85,2.28,5.06,6.57,9.67,9.53,14.49,1.07,1.72,3.17,3.91,5.23,2.3Z"/>
    <path class="cls-1" d="m379.41,650.19c-.41-3.67-4.84-3.89-5.61-.27-.17,6.15-1.02,12.86.43,18.82,6.19,5.95,5.4-6.49,5.28-9.97-.05-2.86.12-5.74-.1-8.58Z"/>
    <path class="cls-1" d="m413.22,660.86c1.11-2.15,3.2-5.97.23-7.34-5.04-1.45-7.2,9.18-9.31,12.6-.92,2.35.59,4.08,3.46,4.05,3.88-.11,3.24-6.83,5.62-9.31Z"/>
    <path class="cls-1" d="m376.46,773c.57,4.43-.44,9.98,4.06,12.51,1.21.8,1.6.3,1.85-.73,1.26-5.14.11-10.19-.8-15.21-2.41-4.77-6.12-.6-5.11,3.43Z"/>
    <path class="cls-1" d="m358.11,767.63c-5-.26-4.19,8.59-5.47,11.63-.49,4.39,4.11,5.51,5.35,1.57.29-3.85,4.96-11.13.11-13.2Z"/>
    <path class="cls-1" d="m470.73,665.33c.16-6.23.36-12.46.41-18.87-.56-8.25,2.56-22.64-8.24-25.43-3.61-.47-4.13,5.17-.85,6,1.33.32,1.89,1.29,1.96,2.63,1.13,14.52.18,29.1,1.03,43.64,1.5,6.59-2.51,24.14,2.44,27.65,7.62,3.99,1.74-30.71,3.24-35.63Z"/>
    <path class="cls-1" d="m488.51,650.05s-.01,0-.02,0c-1.12-6.73,4.45-33.75-8.89-27.1-1.38.83-4.88,5.97-.98,4.62,3.69-1.31,3.57,3.13,3.73,5.59.13,12.98.03,25.96.59,38.94.99,4.05-2.3,31.35,4.2,27.73,1.16-1.96,2.06-3.92,1.98-6.38-.17-14.46-.91-28.92-.61-43.4Z"/>
    <path class="cls-1" d="m456.36,667.95c-.3-9.31.23-18.62-.54-27.93-1.22-4.97,2.55-11.7-2.54-15.05-6.43-4.81-13.68,5.22-5.31,4.99,2.33-.64,1.82,1.22,1.83,2.77-.02,0-.05,0-.07,0,.89,18.27.76,36.65,1.16,54.96.22,4.51-.8,9.38,1.99,13.25,7.22,3.8,2.81-28.32,3.47-33Z"/>
    <path class="cls-1" d="m208.84,300.78c1.68-1.7,2.37-3.68,2.06-5.93-.31-2.25-1.28-4.19-2.92-5.82-4.17-4.13-9.35-10-15.52-17.6.32-.74,1.99-3.44,4.99-8.08,8.25-12.62,13.43-25.14,15.56-37.57,2.12-12.43-.21-22.01-7.01-28.74-4.71-4.66-10.43-6.37-17.16-5.13-6.73,1.25-13.43,5.24-20.1,11.98-5.7,5.75-11.62,13.59-17.76,23.51-6.14,9.92-7.96,16.12-5.45,18.61,2.56,2.54,5.3,3.33,8.2,2.37.53.12,2.01,1.37,4.42,3.76,2.12,2.1,7.97,9.28,17.55,21.55,11.85,15.17,18.95,23.92,21.31,26.25,4.26,4.22,8.21,4.5,11.84.84Zm-46.01-66.59c4.23-8.68,9.05-15.75,14.45-21.21,7.8-7.87,14.18-9.34,19.16-4.41,4.17,4.14,4.87,11.26,2.08,21.37-2.79,10.12-7.72,20.17-14.79,30.18l-20.9-25.94Z"/>
    <path class="cls-1" d="m234.79,166.92c1.17-2.54,1.33-4.41.47-5.61-.44-.61-1.84-1.2-4.2-1.75-2.36-.55-4.07-.45-5.12.31-1.09.78-2.2,2.44-3.34,4.96-3.01,4.59-4.04,11.17-3.1,19.74l-.04-.05c.42,3.47,1.38,6.24,2.87,8.32,1.05,1.47,3.15,2.91,6.28,4.32,3.13,1.42,5.52,2.12,7.16,2.1,1.64-.02,3.16-.53,4.56-1.53,1.23-.88,1.85-2.27,1.85-4.16,0-1.89-.32-3.3-.98-4.22-.66-.92-2.23-1.91-4.7-2.98-1.82-.81-2.95-1.52-3.39-2.13-1.62-2.25-2.3-4.47-2.07-6.65l-.05.04c1.59-3.26,2.4-5.47,2.44-6.63.25-1.52.7-2.88,1.34-4.07Z"/>
    <path class="cls-1" d="m306.8,201.95c-5.01,2.56-12.28,2.21-21.82-1.07-3.18-1.06-5.74-1.09-7.69-.1-2.24,1.15-3.75,2.65-4.52,4.5-.77,1.86-.67,3.74.31,5.64,1.74,3.4,7.18,5.71,16.33,6.92,9.15,1.21,17.03.12,23.64-3.26,8.63-4.41,13.48-11.56,14.55-21.44,1.07-9.88-1.18-22.77-6.75-38.68-5.57-15.91-10.55-28.16-14.95-36.75-.73-1.42-2.04-2.34-3.92-2.77-1.89-.42-3.66-.22-5.3.63-1.57.8-2.89,2.26-3.96,4.36-1.07,2.1-1.19,3.96-.37,5.56,5.54,10.83,10.46,22.74,14.77,35.71,4.3,12.97,6.31,22.51,6.01,28.6-.3,6.09-2.41,10.14-6.33,12.15Z"/>
    <path class="cls-1" d="m388.54,174c-3.14.78-7.42-.08-12.86-2.57-5.44-2.5-9.45-8.94-12.03-19.32-.7-2.81-1.43-8.32-2.2-16.54-.77-8.22-1.16-13.41-1.18-15.56-.06-8.59-.19-13.31-.41-14.17-.3-1.22-1.5-2.79-3.6-4.71-2.1-1.92-3.88-2.7-5.35-2.34-2.97.74-4.89,2.42-5.75,5.03-.86,2.61-1.02,6.23-.48,10.85.28,2.7.53,5.51.74,8.44.13,1.91.29,3.86.48,5.85l.85,11.79c.44,6.64,1.14,11.89,2.1,15.76,1.88,7.57,5.2,14.24,9.96,20,4.76,5.76,10.46,9.26,17.1,10.5,6.64,1.25,12.06,1.35,16.26.31,9.9-2.46,17.76-6.77,23.6-12.93,5.84-6.16,9.37-12.44,10.59-18.84,1.22-6.4.67-15.86-1.67-28.38-.95-5.21-1.62-10.6-2.01-16.17-.62-9.27-1.33-15.54-2.14-18.79-1.36-5.5-4.17-7.72-8.4-6.67-3.42.85-5.61,3.32-6.56,7.4-.95,4.09-.13,13.44,2.46,28.05.66,3.86,1.3,7.91,1.92,12.17.12,1.7.3,3.49.56,5.37,1.39,10.29.66,18.14-2.19,23.54-2.85,5.4-9.45,9.38-19.79,11.95Z"/>
    <path class="cls-1" d="m446.23,145.93c-.11,7.59,2.02,13.6,6.38,18.03,4.36,4.43,10.3,6.7,17.81,6.81,11.12.16,23.78-4.86,37.99-15.06-.68,3.43-1.58,7.55-2.7,12.36-1.25,5.4-1.89,8.45-1.9,9.16-.03,2.14.9,4.02,2.78,5.64,1.89,1.62,3.96,2.45,6.23,2.48,1.43.02,2.71-.29,3.85-.92,1.14-.63,2.08-1.53,2.81-2.7.73-1.16,1.14-2.67,1.23-4.51.09-1.85.17-5.18.24-10,.04-2.6.6-6.8,1.69-12.6,1.09-5.8,2.16-10.41,3.22-13.83h-.06c1.02-3.55,2.11-6.58,3.28-9.08,1.47-3.29,2.22-5.67,2.24-7.14.05-3.73-2.67-5.64-8.16-5.72-2.39-.03-4.29.33-5.71,1.08-1.42.76-2.31,2.31-2.68,4.65-.65,3.98-1.57,7.62-2.77,10.91-1.2,3.3-4.71,6.92-10.51,10.86-5.81,3.94-11.26,6.82-16.37,8.64-5.1,1.81-9.48,2.69-13.13,2.64-7.05-.1-10.51-4.27-10.39-12.49.11-7.8,2.78-15.96,8-24.46,5.22-8.5,11.98-15.83,20.27-21.99,8.29-6.15,15.63-9.18,22.01-9.09,1.97.03,3.47.44,4.48,1.23,1.02.79,1.91,2.14,2.68,4.04.69,1.69,1.36,2.82,2.03,3.4.66.58,1.69.87,3.07.89,2.18.03,4.38-1.49,6.58-4.56,2.21-3.07,3.33-5.89,3.37-8.45.04-3.06-1.49-5.61-4.61-7.65-3.12-2.04-7.38-3.1-12.79-3.18-10.45-.15-20.95,3.01-31.52,9.49-10.57,6.48-19.77,15.41-27.61,26.79v-.06c-7.38,10.93-11.15,22.39-11.33,34.39Z"/>
    <path class="cls-1" d="m546.2,164.89c-1.29,1.96-1.96,3.11-2.01,3.44l-.34,2.06c-.49,3.04-.19,5.45.9,7.23,1.09,1.78,3.29,3.1,6.57,3.97,6.25,1.64,13.1,2.63,20.56,2.97,8.19,1.02,15.11,2.09,20.76,3.22,7.3,1.44,13.22,1.77,17.76,1.01,1.47-.65,2.45-1.92,2.94-3.78,1.06-4.06-.89-7.13-5.85-9.21-1.7-.45-5.49-.81-11.36-1.09-2.09-.11-7.43-.72-16.02-1.82-8.58-1.1-13.85-1.9-15.8-2.41-1.66-.44-2.4-1.43-2.21-2.99.55-2.11,1.97-5.7,4.25-10.76,2.28-5.06,3.69-7.92,4.22-8.55.54-.64,1.17-.97,1.92-.99l.06.02c2.22-.2,9.12.52,20.71,2.17,2.38.36,4.37.62,5.98.78,3.05.28,5.78.6,8.2.98,3.92.59,6.92.59,8.98-.02,2.07-.61,3.47-2.31,4.2-5.11,1-3.81-1.71-6.56-8.12-8.24-3.21-.84-7.92-1.31-14.14-1.42-2.16-.04-5.74-.44-10.75-1.19-5.01-.75-8.81-1.46-11.41-2.14.85-2.42,2.29-5.45,4.33-9.08,2.6-4.79,4.26-8.17,5-10.14.7-2.03,1.3-3.21,1.8-3.53.5-.33,3.2-.27,8.12.17,4.91.44,10.69,1.33,17.32,2.68l19.01,3.93c1.3,0,2.8-.56,4.5-1.65,1.69-1.1,2.67-2.13,2.93-3.1,1.37-5.24-1.67-8.55-9.11-9.93l-.87-.16c-.28-.07-3.62-.51-10-1.32-19.19-2.42-30.47-4.07-33.84-4.96-1.88-.75-3.78-1.38-5.69-1.88-1.38-.36-2.97-.32-4.78.11-1.81.44-2.9,1.06-3.29,1.87-.28.4-.51.97-.71,1.7-.36,1.38-.38,2.82-.06,4.31.32,1.49.6,2.4.82,2.72.17.35.25.54.24.58-.51,1.95-4.2,11.22-11.05,27.81-6.86,16.59-11.76,27.17-14.69,31.74Z"/>
    <path class="cls-1" d="m687.58,132.06c-1.06-1.55-2.17-2.63-3.3-3.26-1.76-.97-3.59-1.37-5.49-1.2-1.9.18-3.28.68-4.15,1.52-.87.84-2.13,2.62-3.78,5.35-3.35,5.72-10.62,15.08-21.82,28.07l-14.27,16.35-.24.3c-4.51,4.7-7.58,8.52-9.2,11.46-2.05,3.71-2.91,6.46-2.57,8.25.33,1.79,1.69,3.34,4.08,4.66,1.51.83,3.55.83,6.14,0,2.59-.82,5.09-3.13,7.52-6.92,2.03-3.15,3.66-5.5,4.91-7.07l3.4-4.59c11.52-15.5,19.09-25.22,22.71-29.16-.09,19.36,1.17,37.04,3.79,53.06.24,1.57.4,4.36.48,8.39.02,2.65.21,4.87.56,6.67.35,1.8.76,2.99,1.22,3.58.46.59,1.38,1.26,2.74,2.01,2.28,1.26,4.37,1.82,6.28,1.71,1.91-.12,3.33-.59,4.27-1.42.93-.83,1.99-2.3,3.17-4.43l1.03-1.87c1.03-1.87,6.32-8.85,15.86-20.93,9.54-12.08,17.79-21.69,24.75-28.83,3.07-3.05,5.16-5.56,6.25-7.55,1.38-2.5,1.99-4.88,1.83-7.15-.16-2.27-1-3.82-2.5-4.65-1.76-.97-3.82-1.39-6.18-1.25-2.35.14-4.51,1.78-6.48,4.91-2.07,3.31-4.74,6.94-8.02,10.88-3.95,4.72-8.5,10.36-13.65,16.91-7.23,9.19-13.28,16.56-18.17,22.11-1.64-9.19-2.76-20.84-3.37-34.93-.61-14.09.07-24.74,2.03-31.95,1.18-4.48,1.23-7.49.17-9.04Z"/>
    <path class="cls-1" d="m761.9,203.85c-13.02,9.58-24.97,19.25-35.85,29.04-3.9,3.64-6.73,6.04-8.5,7.19l-3.67,1.69c-1.8.59-3.01,1.2-3.63,1.83-.91.93-1.48,2.72-1.71,5.36-.23,2.64.42,4.71,1.95,6.21,1.98,1.93,4.68,3.19,8.1,3.77,2.68.56,4.87,1.2,6.57,1.92,1.7.72,4.38,2.21,8.03,4.48,13.85,8.51,28.17,13.17,42.98,13.97,14.8.8,26.42-3.12,34.85-11.78,7.56-7.75,11.03-16.51,10.43-26.26-.6-9.75-5.09-18.72-13.48-26.88-2.59-2.52-6.11-5.6-10.58-9.25-5.22-4.32-9.21-7.83-11.98-10.53l-5.91-6.11c-1.47-1.43-3.49-2.15-6.04-2.15-2.55,0-4.53.73-5.94,2.17-1.93,1.98-1.7,4.93.69,8.85.36.59.28,1.15-.25,1.69-1.23,1.26-3.26,2.86-6.08,4.8Zm18.84,4.21c.45.38,1.06.86,1.84,1.44,6.11,4.55,11.09,8.7,14.94,12.45,5.62,5.47,8.74,11.37,9.35,17.68.62,6.31-1.49,11.95-6.32,16.91-6.03,6.19-13.75,9.42-23.15,9.69-9.4.27-19-2.1-28.8-7.1-9.8-5.01-15.49-8.29-17.09-9.84.43-.81,1.4-1.98,2.89-3.51,8.05-8.26,23.5-20.84,46.33-37.72Z"/>
  </g>
</svg>