<?xml version="1.0" encoding="UTF-8" standalone="no"?>
<!-- Created with Inkscape (http://www.inkscape.org/) -->

<svg
   version="1.1"
   id="svg2"
   xml:space="preserve"
   width="523.15997"
   height="458.32001"
   viewBox="0 0 523.15997 458.32001"
   sodipodi:docname="Logo_2023.svg"
   inkscape:version="1.2.1 (9c6d41e410, 2022-07-14)"
   xmlns:inkscape="http://www.inkscape.org/namespaces/inkscape"
   xmlns:sodipodi="http://sodipodi.sourceforge.net/DTD/sodipodi-0.dtd"
   xmlns="http://www.w3.org/2000/svg"
   xmlns:svg="http://www.w3.org/2000/svg"
   xmlns:rdf="http://www.w3.org/1999/02/22-rdf-syntax-ns#"
   xmlns:cc="http://creativecommons.org/ns#"
   xmlns:dc="http://purl.org/dc/elements/1.1/"><metadata
     id="metadata8"><rdf:RDF><cc:Work
         rdf:about=""><dc:format>image/svg+xml</dc:format><dc:type
           rdf:resource="http://purl.org/dc/dcmitype/StillImage" /></cc:Work></rdf:RDF></metadata><defs
     id="defs6"><clipPath
       clipPathUnits="userSpaceOnUse"
       id="clipPath22"><path
         d="M 124.727,428.531 H 3923.7 V 3400.07 H 124.727 Z"
         id="path20"
         inkscape:connector-curvature="0" /></clipPath><clipPath
       clipPathUnits="userSpaceOnUse"
       id="clipPath156"><path
         d="M 124.727,428.531 H 3829.24 V 3400.07 H 124.727 Z"
         id="path154"
         inkscape:connector-curvature="0" /></clipPath></defs><sodipodi:namedview
     pagecolor="#ffffff"
     bordercolor="#666666"
     borderopacity="1"
     objecttolerance="10"
     gridtolerance="10"
     guidetolerance="10"
     inkscape:pageopacity="0"
     inkscape:pageshadow="2"
     inkscape:window-width="1457"
     inkscape:window-height="1041"
     id="namedview4"
     showgrid="false"
     inkscape:zoom="0.87093924"
     inkscape:cx="343.30753"
     inkscape:cy="506.34991"
     inkscape:window-x="306"
     inkscape:window-y="64"
     inkscape:window-maximized="0"
     inkscape:current-layer="g12"
     inkscape:showpageshadow="2"
     inkscape:pagecheckerboard="0"
     inkscape:deskcolor="#d1d1d1"
     showguides="true"><sodipodi:guide
       position="-80.373,113.86429"
       orientation="0,-1"
       id="guide1069"
       inkscape:locked="false" /></sodipodi:namedview><g
     id="g10"
     inkscape:groupmode="layer"
     inkscape:label="ink_ext_XXXXXX"
     transform="matrix(1.3333333,0,0,-1.3333333,0,458.32)"><g
       id="g12"
       transform="scale(0.1)"><path
         d="M 191.172,607.051 H 3778.94 V 3378.41 H 191.172 V 607.051"
         style="fill:#7d161a;fill-opacity:1;fill-rule:nonzero;stroke:none"
         id="path14"
         inkscape:connector-curvature="0" /><g
         id="g16"><g
           id="g18"
           clip-path="url(#clipPath22)"><path
             d="m -1025.67,590.641 107.818,911.499 82.418,13.82 36.442,459.72 -28.332,27.61 59.574,46.16 c 59.574,46.07 110.422,367.37 110.422,367.37 l 121.351,376.72 425.649,-145.56 c 0,0 56.0389,-126.42 110.093625,-278.14 C 53.8555,2218.16 198.832,1866.11 198.832,1866.11 l 472.246,-134.01 30.66,-126.5 c 30.602,-126.45 124.438,-353.46 124.438,-353.46 l -12.133,295.82 c -22.844,32.3 -21.609,72.86 -21.609,72.86 l 41.175,40.38 c 0,0 -0.457,183.6 -3.738,188.86 -3.367,5.24 -3.926,28.99 -3.926,28.99 0,0 -6.386,61.73 -6.257,79.19 0.125,17.47 19.175,19.63 19.175,19.63 l -3.73,17.88 c 0,0 -0.617,7.51 -1.395,13.85 -0.715,6.31 -5.777,21.66 2.985,37.22 8.699,15.51 25.246,19.21 25.246,19.21 l -5.129,10.38 c -5.192,10.42 5.129,-10.38 5.129,-10.38 0,0 7.301,29.4 12.293,28.99 4.937,-0.39 7.011,47.93 7.011,47.93 0,0 -11.324,-7.65 -11.808,-13.83 -0.488,-6.18 1.133,-32.59 4.797,-34.1 3.605,-1.55 5.164,-12.88 4.672,-19.09 -0.454,-6.22 11.781,-9.71 11.781,-9.71 6.719,-3.69 34.558,-57.28 35.469,-88.92 l 424.246,144.91 c 5.03,7.08 12.27,22.8 6.52,29.5 -5.67,6.65 -3.76,15.25 2.08,26.06 5.84,10.78 4.12,52.06 4.12,52.06 0,0 8.05,-40.56 11.13,-48.32 3.12,-7.7 8.83,-15.64 5.68,-22.92 -3.05,-7.24 9.54,-21.95 9.54,-21.95 0,0 -16.68,-26.92 -5.49,-41.58 11.23,-14.62 27.06,-11.49 25.05,-21.29 -2.04,-9.85 -4.22,-5.96 -2.04,-9.85 2.21,-3.91 -2.63,-28.96 -3.31,-37.64 -0.68,-8.66 8.24,-17.88 14.02,-23.3 5.71,-5.45 0,-14.31 0,-14.31 0,0 9.18,-26.05 15.71,-30.37 6.55,-4.22 1.39,-6.31 -1.05,-13.12 l 10.94,-241.02 56.33,-4.46 -1.36,-59.9 -32.35,-70.85 38.74,-1026.989"
             style="fill:#ffffff;fill-opacity:1;fill-rule:nonzero;stroke:none"
             id="path24"
             inkscape:connector-curvature="0" /><path
             d="m -1025.67,590.641 107.818,911.499 82.418,13.82 36.442,459.72 -28.332,27.61 59.574,46.16 c 59.574,46.07 110.422,367.37 110.422,367.37 l 121.351,376.72 425.649,-145.56 c 0,0 56.0389,-126.42 110.093625,-278.14 C 53.8555,2218.16 198.832,1866.11 198.832,1866.11 l 472.246,-134.01 30.66,-126.5 c 30.602,-126.45 124.438,-353.46 124.438,-353.46 l -12.133,295.82 c -22.844,32.3 -21.609,72.86 -21.609,72.86 l 41.175,40.38 c 0,0 -0.457,183.6 -3.738,188.86 -3.367,5.24 -3.926,28.99 -3.926,28.99 0,0 -6.386,61.73 -6.257,79.19 0.125,17.47 19.175,19.63 19.175,19.63 l -3.73,17.88 c 0,0 -0.617,7.51 -1.395,13.85 -0.715,6.31 -5.777,21.66 2.985,37.22 8.699,15.51 25.246,19.21 25.246,19.21 l -5.129,10.38 c -5.192,10.42 5.129,-10.38 5.129,-10.38 0,0 7.301,29.4 12.293,28.99 4.937,-0.39 7.011,47.93 7.011,47.93 0,0 -11.324,-7.65 -11.808,-13.83 -0.488,-6.18 1.133,-32.59 4.797,-34.1 3.605,-1.55 5.164,-12.88 4.672,-19.09 -0.454,-6.22 11.781,-9.71 11.781,-9.71 6.719,-3.69 34.558,-57.28 35.469,-88.92 l 424.246,144.91 c 5.03,7.08 12.27,22.8 6.52,29.5 -5.67,6.65 -3.76,15.25 2.08,26.06 5.84,10.78 4.12,52.06 4.12,52.06 0,0 8.05,-40.56 11.13,-48.32 3.12,-7.7 8.83,-15.64 5.68,-22.92 -3.05,-7.24 9.54,-21.95 9.54,-21.95 0,0 -16.68,-26.92 -5.49,-41.58 11.23,-14.62 27.06,-11.49 25.05,-21.29 -2.04,-9.85 -4.22,-5.96 -2.04,-9.85 2.21,-3.91 -2.63,-28.96 -3.31,-37.64 -0.68,-8.66 8.24,-17.88 14.02,-23.3 5.71,-5.45 0,-14.31 0,-14.31 0,0 9.18,-26.05 15.71,-30.37 6.55,-4.22 1.39,-6.31 -1.05,-13.12 l 10.94,-241.02 56.33,-4.46 -1.36,-59.9 -32.35,-70.85 38.74,-1026.989"
             style="fill:none;stroke:#7d161a;stroke-width:8.30659008;stroke-linecap:butt;stroke-linejoin:miter;stroke-miterlimit:4;stroke-dasharray:none;stroke-opacity:1"
             id="path26"
             inkscape:connector-curvature="0" /><path
             d="m 843.082,1891.61 164.578,105.92 c 0,0 13.23,31.17 8.79,47.28 -4.51,16.11 -10.83,17.34 -6.94,21.33 3.89,3.95 1.72,21.34 0.32,31.49 -1.33,10.11 -7.01,10.58 -3.7,16.78 3.41,6.12 18.86,17.12 18.86,17.12 0,0 -21.48,21.8 -12.56,43.96 8.95,22.26 27.93,26.48 29.91,33.46 1.98,7.04 1.43,18.54 8.47,16.54 7.01,-1.99 7.73,-10.63 14.35,-17.6 6.65,-6.94 36.4,-10.77 36.75,-25.13 0.24,-14.36 -7.55,-40.27 -8.66,-45.18 -1.06,-4.95 11.33,-11.67 11.33,-11.67 0,0 15.31,-23.43 15.15,-25.59 -0.2,-2.09 -6.88,-86.8 -6.88,-86.8 l 266.4,-46.19 -45.33,60.64 c 0,0 -14.18,19.31 -16.71,23.82 -2.56,4.51 -3.19,13.85 2.4,21.3 5.58,7.41 11.23,14.84 17.36,29.39 6.19,14.59 11.68,23.33 11.68,23.33"
             style="fill:#ffffff;fill-opacity:1;fill-rule:nonzero;stroke:none"
             id="path28"
             inkscape:connector-curvature="0" /><path
             d="m 843.082,1891.61 164.578,105.92 c 0,0 13.23,31.17 8.79,47.28 -4.51,16.11 -10.83,17.34 -6.94,21.33 3.89,3.95 1.72,21.34 0.32,31.49 -1.33,10.11 -7.01,10.58 -3.7,16.78 3.41,6.12 18.86,17.12 18.86,17.12 0,0 -21.48,21.8 -12.56,43.96 8.95,22.26 27.93,26.48 29.91,33.46 1.98,7.04 1.43,18.54 8.47,16.54 7.01,-1.99 7.73,-10.63 14.35,-17.6 6.65,-6.94 36.4,-10.77 36.75,-25.13 0.24,-14.36 -7.55,-40.27 -8.66,-45.18 -1.06,-4.95 11.33,-11.67 11.33,-11.67 0,0 15.31,-23.43 15.15,-25.59 -0.2,-2.09 -6.88,-86.8 -6.88,-86.8 l 266.4,-46.19 -45.33,60.64 c 0,0 -14.18,19.31 -16.71,23.82 -2.56,4.51 -3.19,13.85 2.4,21.3 5.58,7.41 11.23,14.84 17.36,29.39 6.19,14.59 11.68,23.33 11.68,23.33"
             style="fill:none;stroke:#7d161a;stroke-width:8.30659008;stroke-linecap:butt;stroke-linejoin:miter;stroke-miterlimit:4;stroke-dasharray:none;stroke-opacity:1"
             id="path30"
             inkscape:connector-curvature="0" /><path
             d="m 1221,1769.22 c 0,0 -6.62,133.76 -2.41,150.64 4.29,16.88 23.4,23.96 30.09,27.04 6.71,3 31.09,-23.95 32.9,-64.26 1.85,-40.27 8.15,-124.23 8.15,-124.23 l -68.73,10.81"
             style="fill:#7d161a;fill-opacity:1;fill-rule:nonzero;stroke:none"
             id="path32"
             inkscape:connector-curvature="0" /><path
             d="m 1221,1769.22 c 0,0 -6.62,133.76 -2.41,150.64 4.29,16.88 23.4,23.96 30.09,27.04 6.71,3 31.09,-23.95 32.9,-64.26 1.85,-40.27 8.15,-124.23 8.15,-124.23 z"
             style="fill:none;stroke:#ffffff;stroke-width:8.30659008;stroke-linecap:butt;stroke-linejoin:miter;stroke-miterlimit:4;stroke-dasharray:none;stroke-opacity:1"
             id="path34"
             inkscape:connector-curvature="0" /><path
             d="m 920.699,1722.8 39.067,22.65 c 0,0 -0.782,116.89 0.062,136.9 0.91,20 -15.512,30.56 -19.176,29.44 -3.636,-1.13 -19.5,-2.03 -20.308,-39.97 -0.879,-37.92 0.355,-149.02 0.355,-149.02"
             style="fill:#7d161a;fill-opacity:1;fill-rule:nonzero;stroke:none"
             id="path36"
             inkscape:connector-curvature="0" /><path
             d="m 920.699,1722.8 39.067,22.65 c 0,0 -0.782,116.89 0.062,136.9 0.91,20 -15.512,30.56 -19.176,29.44 -3.636,-1.13 -19.5,-2.03 -20.308,-39.97 -0.879,-37.92 0.355,-149.02 0.355,-149.02 z"
             style="fill:none;stroke:#ffffff;stroke-width:8.30659008;stroke-linecap:butt;stroke-linejoin:miter;stroke-miterlimit:4;stroke-dasharray:none;stroke-opacity:1"
             id="path38"
             inkscape:connector-curvature="0" /><path
             d="m 1327.17,1806.68 c -5,-33.65 4.64,-76.36 51.72,-79.33 47.05,-3.04 46.07,38.59 40.23,64.84 -5.77,26.25 -31.41,46.92 -54.34,45.88 -23.01,-1.02 -34.86,-12.88 -37.61,-31.39"
             style="fill:#ffffff;fill-opacity:1;fill-rule:nonzero;stroke:none"
             id="path40"
             inkscape:connector-curvature="0" /><path
             d="m 1327.17,1806.68 c -5,-33.65 4.64,-76.36 51.72,-79.33 47.05,-3.04 46.07,38.59 40.23,64.84 -5.77,26.25 -31.41,46.92 -54.34,45.88 -23.01,-1.02 -34.86,-12.88 -37.61,-31.39 z"
             style="fill:none;stroke:#7d161a;stroke-width:8.30659008;stroke-linecap:butt;stroke-linejoin:miter;stroke-miterlimit:4;stroke-dasharray:none;stroke-opacity:1"
             id="path42"
             inkscape:connector-curvature="0" /><path
             d="m 1371.01,1817.55 3.04,-34.93 25.54,-2.03"
             style="fill:#ffffff;fill-opacity:1;fill-rule:nonzero;stroke:none"
             id="path44"
             inkscape:connector-curvature="0" /><path
             d="m 1371.01,1817.55 3.04,-34.93 25.54,-2.03"
             style="fill:none;stroke:#7d161a;stroke-width:8.30659008;stroke-linecap:butt;stroke-linejoin:miter;stroke-miterlimit:4;stroke-dasharray:none;stroke-opacity:1"
             id="path46"
             inkscape:connector-curvature="0" /><path
             d="m 1264.74,1354.65 v 65.85 l 24.95,-5.39 1.1,-62.56 -26.05,2.1"
             style="fill:#7d161a;fill-opacity:1;fill-rule:nonzero;stroke:none"
             id="path48"
             inkscape:connector-curvature="0" /><path
             d="m 1264.74,1354.65 v 65.85 l 24.95,-5.39 1.1,-62.56 z"
             style="fill:none;stroke:#ffffff;stroke-width:8.30659008;stroke-linecap:butt;stroke-linejoin:miter;stroke-miterlimit:4;stroke-dasharray:none;stroke-opacity:1"
             id="path50"
             inkscape:connector-curvature="0" /><path
             d="m 846.328,1655.54 200.912,98.06 396.06,-49.41"
             style="fill:#ffffff;fill-opacity:1;fill-rule:nonzero;stroke:none"
             id="path52"
             inkscape:connector-curvature="0" /><path
             d="m 846.328,1655.54 200.912,98.06 396.06,-49.41"
             style="fill:none;stroke:#7d161a;stroke-width:8.30659008;stroke-linecap:butt;stroke-linejoin:miter;stroke-miterlimit:4;stroke-dasharray:none;stroke-opacity:1"
             id="path54"
             inkscape:connector-curvature="0" /><path
             d="M -801.949,2002.98 249.613,1780.73 c 0,0 -42.957,38.05 -51.722,73.53"
             style="fill:#ffffff;fill-opacity:1;fill-rule:nonzero;stroke:none"
             id="path56"
             inkscape:connector-curvature="0" /><path
             d="M -801.949,2002.98 249.613,1780.73 c 0,0 -42.957,38.05 -51.722,73.53"
             style="fill:none;stroke:#7d161a;stroke-width:8.30659008;stroke-linecap:butt;stroke-linejoin:miter;stroke-miterlimit:4;stroke-dasharray:none;stroke-opacity:1"
             id="path58"
             inkscape:connector-curvature="0" /><path
             d="m -903.254,1494.21 1138.59,-178.3 c 0,0 -42.211,93.16 -38.613,160.62 3.636,67.51 11.683,297.31 11.683,297.31"
             style="fill:#ffffff;fill-opacity:1;fill-rule:nonzero;stroke:none"
             id="path60"
             inkscape:connector-curvature="0" /><path
             d="m -903.254,1494.21 1138.59,-178.3 c 0,0 -42.211,93.16 -38.613,160.62 3.636,67.51 11.683,297.31 11.683,297.31"
             style="fill:none;stroke:#7d161a;stroke-width:8.30659008;stroke-linecap:butt;stroke-linejoin:miter;stroke-miterlimit:4;stroke-dasharray:none;stroke-opacity:1"
             id="path62"
             inkscape:connector-curvature="0" /><path
             d="m 205.258,1477.58 c 0,0 53.898,-68.68 78.75,-75.69 24.824,-7.05 20.605,-30.46 20.605,-30.46 0,0 -45.945,-3.14 -52.855,12.64 -6.914,15.82 47.402,-47.77 69.89,-63.12 22.489,-15.33 7.954,-27.74 15.215,-21.52 7.274,6.19 -6.773,-770.418 -6.773,-770.418"
             style="fill:#ffffff;fill-opacity:1;fill-rule:nonzero;stroke:none"
             id="path64"
             inkscape:connector-curvature="0" /><path
             d="m 205.258,1477.58 c 0,0 53.898,-68.68 78.75,-75.69 24.824,-7.05 20.605,-30.46 20.605,-30.46 0,0 -45.945,-3.14 -52.855,12.64 -6.914,15.82 47.402,-47.77 69.89,-63.12 22.489,-15.33 7.954,-27.74 15.215,-21.52 7.274,6.19 -6.773,-770.418 -6.773,-770.418"
             style="fill:none;stroke:#7d161a;stroke-width:8.30659008;stroke-linecap:butt;stroke-linejoin:miter;stroke-miterlimit:4;stroke-dasharray:none;stroke-opacity:1"
             id="path66"
             inkscape:connector-curvature="0" /><path
             d="M 1066.32,1631.31 1054.86,528.961"
             style="fill:#ffffff;fill-opacity:1;fill-rule:nonzero;stroke:none"
             id="path68"
             inkscape:connector-curvature="0" /><path
             d="M 1066.32,1631.31 1054.86,528.961"
             style="fill:none;stroke:#7d161a;stroke-width:8.30659008;stroke-linecap:butt;stroke-linejoin:miter;stroke-miterlimit:4;stroke-dasharray:none;stroke-opacity:1"
             id="path70"
             inkscape:connector-curvature="0" /><path
             d="m 304.68,1371.39 c 0,0 10.476,-4.22 36.992,-11.42 26.605,-7.14 359.906,-55.54 359.906,-55.54 0,0 -35.238,46.83 -102.828,135.18 -41.152,53.82 -186.516,370.91 -186.516,370.91 l -155.039,30.9 42.258,-470.2"
             style="fill:#7d161a;fill-opacity:1;fill-rule:nonzero;stroke:none"
             id="path72"
             inkscape:connector-curvature="0" /><path
             d="m 304.68,1371.39 c 0,0 10.476,-4.22 36.992,-11.42 26.605,-7.14 359.906,-55.54 359.906,-55.54 0,0 -35.238,46.83 -102.828,135.18 -67.59,88.39 -238.684,372.61 -238.684,372.61 l -102.871,29.2 z"
             style="fill:none;stroke:#ffffff;stroke-width:8.30659008;stroke-linecap:butt;stroke-linejoin:miter;stroke-miterlimit:4;stroke-dasharray:none;stroke-opacity:1"
             id="path74"
             inkscape:connector-curvature="0" /><path
             d="m 488.621,862.09 v 293.09 c 0,0 -15.926,62.29 -35.23,75.68 l -19.211,13.37 c 0,0 -57.465,-41.21 -53.157,-72.03 4.321,-30.84 1.497,-301.7 1.497,-301.7 l 106.101,-8.41"
             style="fill:#7d161a;fill-opacity:1;fill-rule:nonzero;stroke:none"
             id="path76"
             inkscape:connector-curvature="0" /><path
             d="m 488.621,862.09 v 293.09 c 0,0 -15.926,62.29 -35.23,75.68 l -19.211,13.37 c 0,0 -57.465,-41.21 -53.157,-72.03 4.321,-30.84 1.497,-301.7 1.497,-301.7 z"
             style="fill:none;stroke:#ffffff;stroke-width:8.30659008;stroke-linecap:butt;stroke-linejoin:miter;stroke-miterlimit:4;stroke-dasharray:none;stroke-opacity:1"
             id="path78"
             inkscape:connector-curvature="0" /><path
             d="m 540.543,512.309 c 0,0 16.867,340.921 19.469,352.582 2.593,11.64 -2.532,267.939 2.269,306.489 0,0 -27.968,10.7 -30.433,65.1 -2.5,54.44 0.871,96.54 0.871,96.54"
             style="fill:#ffffff;fill-opacity:1;fill-rule:nonzero;stroke:none"
             id="path80"
             inkscape:connector-curvature="0" /><path
             d="m 540.543,512.309 c 0,0 16.867,340.921 19.469,352.582 2.593,11.64 -2.532,267.939 2.269,306.489 0,0 -27.968,10.7 -30.433,65.1 -2.5,54.44 0.871,96.54 0.871,96.54"
             style="fill:none;stroke:#7d161a;stroke-width:8.30659008;stroke-linecap:butt;stroke-linejoin:miter;stroke-miterlimit:4;stroke-dasharray:none;stroke-opacity:1"
             id="path82"
             inkscape:connector-curvature="0" /><path
             d="m 539.922,1197.44 c 0,0 20.445,24.95 42.441,35.04 11.196,5.13 46.465,-34.15 47.539,-63.09 1.106,-28.85 -9.929,-317.718 -9.929,-317.718 l -60.84,4.828"
             style="fill:#7d161a;fill-opacity:1;fill-rule:nonzero;stroke:none"
             id="path84"
             inkscape:connector-curvature="0" /><path
             d="m 539.922,1197.44 c 0,0 20.445,24.95 42.441,35.04 11.196,5.13 46.465,-34.15 47.539,-63.09 1.106,-28.85 -9.929,-317.718 -9.929,-317.718 l -60.84,4.828"
             style="fill:none;stroke:#ffffff;stroke-width:8.30659008;stroke-linecap:butt;stroke-linejoin:miter;stroke-miterlimit:4;stroke-dasharray:none;stroke-opacity:1"
             id="path86"
             inkscape:connector-curvature="0" /><path
             d="m 1322.17,2044.31 64.44,15.34 c 0,0 8.34,2.63 23.85,-3.49 15.64,-6.14 15.9,-3.71 15.9,-3.71"
             style="fill:#ffffff;fill-opacity:1;fill-rule:nonzero;stroke:none"
             id="path88"
             inkscape:connector-curvature="0" /><path
             d="m 1322.17,2044.31 64.44,15.34 c 0,0 8.34,2.63 23.85,-3.49 15.64,-6.14 15.9,-3.71 15.9,-3.71"
             style="fill:none;stroke:#7d161a;stroke-width:8.30659008;stroke-linecap:butt;stroke-linejoin:miter;stroke-miterlimit:4;stroke-dasharray:none;stroke-opacity:1"
             id="path90"
             inkscape:connector-curvature="0" /><path
             d="m 1016.16,2114.64 c 0,0 31.47,12.72 52.14,11.06 20.7,-1.62 36.95,-2.92 36.95,-2.92"
             style="fill:#ffffff;fill-opacity:1;fill-rule:nonzero;stroke:none"
             id="path92"
             inkscape:connector-curvature="0" /><path
             d="m 1016.16,2114.64 c 0,0 31.47,12.72 52.14,11.06 20.7,-1.62 36.95,-2.92 36.95,-2.92"
             style="fill:none;stroke:#7d161a;stroke-width:8.30659008;stroke-linecap:butt;stroke-linejoin:miter;stroke-miterlimit:4;stroke-dasharray:none;stroke-opacity:1"
             id="path94"
             inkscape:connector-curvature="0" /><path
             d="m 836.82,1984.64 c 1.754,2.29 28.325,3.39 41.278,5.55 13.004,2.18 17.84,2.58 17.84,2.58"
             style="fill:#ffffff;fill-opacity:1;fill-rule:nonzero;stroke:none"
             id="path96"
             inkscape:connector-curvature="0" /><path
             d="m 836.82,1984.64 c 1.754,2.29 28.325,3.39 41.278,5.55 13.004,2.18 17.84,2.58 17.84,2.58"
             style="fill:none;stroke:#7d161a;stroke-width:8.30659008;stroke-linecap:butt;stroke-linejoin:miter;stroke-miterlimit:4;stroke-dasharray:none;stroke-opacity:1"
             id="path98"
             inkscape:connector-curvature="0" /><path
             d="m 836.688,1892.11 c 0,0 21.71,21.09 37.484,58.31 15.766,37.22 40.43,41.94 40.297,101.08"
             style="fill:#ffffff;fill-opacity:1;fill-rule:nonzero;stroke:none"
             id="path100"
             inkscape:connector-curvature="0" /><path
             d="m 836.688,1892.11 c 0,0 21.71,21.09 37.484,58.31 15.766,37.22 40.43,41.94 40.297,101.08"
             style="fill:none;stroke:#7d161a;stroke-width:8.30659008;stroke-linecap:butt;stroke-linejoin:miter;stroke-miterlimit:4;stroke-dasharray:none;stroke-opacity:1"
             id="path102"
             inkscape:connector-curvature="0" /><path
             d="m 528.66,3069.38 c -1.133,28.81 -2.394,58.21 -3.726,88.22 20.41,-0.94 40.754,-1.73 60.968,-2.4 20.184,-0.67 40.493,-1.02 60.934,-1.02 20.41,0 41.086,0.35 61.977,1.02 20.898,0.67 43.609,1.46 68.14,2.4 -1.363,-6.85 -2.074,-13.66 -2.074,-20.47 0,-6.82 0.711,-13.6 2.074,-20.4 -12.265,1.35 -27.027,2.58 -44.293,3.72 -17.262,1.17 -34.847,2.06 -52.789,2.73 -17.941,0.69 -35.203,1.23 -51.758,1.71 -16.582,0.45 -30.3,0.67 -41.203,0.67 -0.457,-15.92 -0.781,-31.11 -1.008,-45.61 -0.257,-14.57 -0.39,-29.07 -0.39,-43.61 0,-15.89 0.133,-30.56 0.39,-43.95 0.227,-13.38 0.325,-27.33 0.325,-41.87 29.949,0 59.601,0.44 88.875,1.37 29.296,0.87 58.242,2.72 86.863,5.41 -1.852,-6.78 -2.727,-13.58 -2.727,-20.42 0,-6.79 0.875,-13.6 2.727,-20.42 -11.324,1.37 -24.207,2.38 -38.485,3.04 -14.308,0.7 -29.203,1.3 -44.585,1.72 -15.477,0.44 -31.145,0.7 -47.047,0.7 h -45.621 v -57.9 c 0,-29.98 0.55,-59.48 1.687,-88.56 1.168,-29.03 2.399,-57.69 3.766,-85.82 -10.45,0.93 -21.582,1.37 -33.36,1.37 -11.84,0 -22.968,-0.44 -33.386,-1.37 1.332,28.13 2.593,56.79 3.726,85.82 1.141,29.08 1.692,58.58 1.692,88.56 v 117.14 c 0,29.97 -0.551,59.37 -1.692,88.22"
             style="fill:#ffffff;fill-opacity:1;fill-rule:nonzero;stroke:none"
             id="path104"
             inkscape:connector-curvature="0" /><path
             d="m 869.234,3069.38 c -1.132,28.81 -2.398,58.21 -3.73,88.22 5.875,-0.94 11.586,-1.73 17,-2.4 5.457,-0.67 10.937,-1.02 16.387,-1.02 5.422,0 10.839,0.35 16.324,1.02 5.449,0.67 11.094,1.46 17.031,2.4 -1.363,-30.01 -2.629,-59.41 -3.762,-88.22 -1.136,-28.85 -1.687,-58.25 -1.687,-88.22 v -117.14 c 0,-29.98 0.551,-59.48 1.687,-88.56 1.133,-29.03 2.399,-57.69 3.762,-85.82 -10.445,0.93 -21.578,1.37 -33.355,1.37 -11.84,0 -22.973,-0.44 -33.387,-1.37 1.332,28.13 2.598,56.79 3.73,85.82 1.137,29.08 1.688,58.58 1.688,88.56 v 117.14 c 0,29.97 -0.551,59.37 -1.688,88.22"
             style="fill:#ffffff;fill-opacity:1;fill-rule:nonzero;stroke:none"
             id="path106"
             inkscape:connector-curvature="0" /><path
             d="m 1136.92,2939.62 c 7.47,-0.42 15.78,-0.7 24.87,-0.7 14.08,0 28.71,1.62 43.92,4.78 15.26,3.16 29.17,8.75 41.9,16.68 12.71,7.95 23.26,18.62 31.67,32.03 8.4,13.4 12.61,30.3 12.61,50.72 0,17.73 -3.27,32.38 -9.89,43.95 -6.59,11.56 -15.09,20.76 -25.54,27.58 -10.44,6.81 -21.77,11.5 -34.03,13.98 -12.26,2.47 -24.33,3.72 -36.08,3.72 -15.94,0 -29.07,-0.33 -39.55,-0.99 -10.45,-0.7 -19.32,-1.49 -26.55,-2.42 -0.94,-24.95 -1.81,-49.71 -2.73,-74.24 -0.94,-24.48 -1.36,-49 -1.36,-73.56 v -38.81 c 6.36,-1.36 13.27,-2.29 20.76,-2.72 m -78.36,129.76 c -1.1,28.82 -2.33,58.21 -3.7,88.21 13.15,-0.93 26.1,-1.71 38.81,-2.39 12.73,-0.68 25.64,-1.04 38.81,-1.04 13.17,0 26.12,0.57 38.84,1.72 12.69,1.1 25.63,1.71 38.85,1.71 19.07,0 37.21,-1.84 54.47,-5.46 17.26,-3.65 32.38,-9.63 45.3,-18.04 12.95,-8.4 23.17,-19.43 30.63,-33.03 7.46,-13.65 11.26,-30.66 11.26,-51.09 0,-21.81 -4.9,-40.54 -14.63,-56.2 -9.81,-15.63 -21.68,-28.6 -35.76,-38.84 -14.09,-10.18 -29.17,-18.17 -45.33,-23.84 -16.13,-5.65 -30.76,-9.42 -43.9,-11.2 5.42,-6.81 12.95,-16.35 22.48,-28.65 9.51,-12.26 20.18,-25.75 32,-40.5 11.78,-14.79 24.04,-30.24 36.76,-46.31 12.72,-16.12 24.99,-31.58 36.82,-46.36 11.78,-14.76 22.91,-28.25 33.36,-40.51 10.42,-12.25 18.82,-21.59 25.18,-27.9 -6.81,0.89 -13.62,1.36 -20.44,1.36 h -20.41 -19.76 c -6.81,0 -13.4,-0.47 -19.76,-1.36 -6.82,9.5 -17.1,23.81 -30.99,42.89 -13.86,19.06 -29.17,39.51 -46,61.31 -16.78,21.79 -33.91,43.45 -51.4,65.06 -17.46,21.53 -33.49,39.83 -48,54.82 h -25.89 V 2864 c 0,-29.94 0.55,-59.48 1.69,-88.52 1.13,-29.07 2.4,-57.71 3.76,-85.82 -10.48,0.89 -21.61,1.36 -33.39,1.36 -11.84,0 -22.94,-0.47 -33.36,-1.36 1.37,28.11 2.6,56.75 3.7,85.82 1.18,29.04 1.76,58.58 1.76,88.52 v 117.15 c 0,30 -0.58,59.38 -1.76,88.23"
             style="fill:#ffffff;fill-opacity:1;fill-rule:nonzero;stroke:none"
             id="path108"
             inkscape:connector-curvature="0" /><path
             d="m 1615.08,2978.44 c 32.02,-60.84 65.48,-123.27 100.49,-187.31 4.51,8.62 11.13,21.02 19.72,37.13 8.64,16.11 18.63,34.58 30.02,55.52 11.32,20.89 23.49,43.46 36.41,67.78 12.94,24.29 26.11,48.91 39.48,73.9 13.41,24.95 26.71,49.5 39.85,73.56 13.17,24.06 25.47,46.54 36.83,67.42 h 8.82 c 5.04,-43.59 9.64,-85.73 13.95,-126.33 4.32,-40.68 8.76,-80.6 13.28,-119.91 4.54,-39.25 9.08,-78.12 13.66,-116.46 4.51,-38.38 9.54,-76.4 14.99,-114.1 -5.45,0.93 -10.77,1.37 -16.03,1.37 h -15.99 -16.01 c -5.25,0 -10.58,-0.44 -16.02,-1.37 -4.97,60.37 -9.99,118.99 -14.99,175.74 -5,56.78 -11.14,114.65 -18.36,173.71 h -1.37 c -31.31,-57.22 -62.11,-114.11 -92.29,-170.63 -30.2,-56.55 -58.95,-115.69 -86.18,-177.45 h -6.16 c -27.23,57.23 -55.71,114.55 -85.47,172 -29.72,57.42 -59.6,116.13 -89.55,176.08 h -1.37 c -3.17,-28.18 -6.68,-58.72 -10.54,-91.62 -3.89,-32.95 -7.43,-65.42 -10.58,-97.44 -3.17,-32.01 -5.91,-62.17 -8.17,-90.58 -2.24,-28.38 -3.38,-51.67 -3.38,-69.81 -7.27,0.93 -15.22,1.37 -23.85,1.37 -8.69,0 -16.58,-0.44 -23.88,-1.37 5.94,36.78 12.04,75.62 18.43,116.45 6.33,40.9 12.49,82 18.37,123.34 5.9,41.3 11.36,82.05 16.38,122.25 4.94,40.17 9.25,78.44 12.92,114.76 h 11.61 c 31.29,-64.46 62.95,-127.16 94.98,-188"
             style="fill:#ffffff;fill-opacity:1;fill-rule:nonzero;stroke:none"
             id="path110"
             inkscape:connector-curvature="0" /><path
             d="m 2436.19,3085.39 c -0.42,34.95 -1.62,59 -3.4,72.2 4.99,-0.9 9.77,-1.69 14.31,-2.39 4.51,-0.67 9.08,-1.01 13.62,-1.01 5.88,0 12.7,1.11 20.41,3.4 -1.35,-15.89 -2.72,-34.86 -4.08,-56.89 -1.37,-22.02 -2.5,-45.62 -3.41,-70.82 -0.91,-25.2 -1.81,-51.08 -2.72,-77.67 -0.91,-26.55 -1.59,-52.33 -2.01,-77.31 -0.53,-30.4 -5.13,-57.64 -13.99,-81.74 -8.86,-24.06 -21.45,-44.53 -37.8,-61.3 -16.36,-16.81 -36.44,-29.5 -60.25,-38.11 -23.86,-8.64 -51.24,-12.97 -82.1,-12.97 -68.14,0 -117.59,15.43 -148.51,46.32 -30.89,30.88 -46.27,79.68 -46.27,146.44 0,21.34 0.52,40.3 1.65,56.88 1.13,16.58 1.72,33.5 1.72,50.76 0,38.13 -0.45,71.98 -1.36,101.48 -0.91,29.52 -1.82,54.47 -2.72,74.93 5.45,-0.9 11.35,-1.69 17.71,-2.39 6.36,-0.67 12.27,-1.01 17.68,-1.01 5.04,0 9.9,0.34 14.67,1.01 4.77,0.7 9.66,1.49 14.63,2.39 -0.94,-10 -1.81,-23.06 -2.72,-39.17 -0.95,-16.12 -1.82,-34.4 -2.72,-54.82 -0.95,-20.44 -1.6,-42.47 -2.06,-66.06 -0.44,-23.62 -0.67,-48.19 -0.67,-73.59 0,-15.43 0.23,-31.45 0.67,-47.99 0.46,-16.58 2.06,-32.73 4.78,-48.42 2.72,-15.63 7.17,-30.63 13.3,-44.9 6.1,-14.33 14.83,-26.82 26.22,-37.5 11.36,-10.66 25.64,-19.06 42.89,-25.18 17.27,-6.11 38.59,-9.23 64.05,-9.23 24.96,0 45.95,3.66 62.98,10.89 17.07,7.28 31.03,16.82 41.9,28.65 10.87,11.79 19.43,25.43 25.54,40.86 6.16,15.46 10.57,31.58 13.33,48.35 2.69,16.78 4.31,33.59 4.73,50.4 0.43,16.82 0.69,32.26 0.69,46.31 0,64.51 -0.26,114.24 -0.69,149.2"
             style="fill:#ffffff;fill-opacity:1;fill-rule:nonzero;stroke:none"
             id="path112"
             inkscape:connector-curvature="0" /><path
             d="m 2828.52,2866.4 c -58.99,63.34 -118.04,126.33 -177.09,188.99 -0.46,-12.72 -0.92,-29.71 -1.37,-51.07 -0.45,-21.32 -0.65,-50.39 -0.65,-87.16 0,-9.55 0.1,-21.35 0.33,-35.45 0.22,-14.08 0.45,-28.83 0.67,-44.25 0.26,-15.45 0.56,-31.14 1.02,-47 0.45,-15.94 0.93,-30.66 1.35,-44.26 0.46,-13.66 0.95,-25.56 1.37,-35.79 0.45,-10.2 0.94,-17.15 1.36,-20.77 -7.27,0.93 -15.22,1.37 -23.82,1.37 -9.11,0 -17.49,-0.44 -25.18,-1.37 0.88,4.51 1.89,12.95 3.02,25.18 1.17,12.27 2.18,26.91 3.09,43.93 0.91,17.04 1.94,35.55 3.04,55.52 1.14,20.01 2.08,39.98 2.73,59.93 0.71,20.01 1.27,39.56 1.72,58.62 0.46,19.07 0.68,36.08 0.68,51.07 0,43.6 -0.13,81.07 -0.32,112.4 -0.24,31.35 -0.81,54.69 -1.69,70.15 h 10.84 c 27.7,-29.98 57.36,-62.1 88.93,-96.4 31.51,-34.28 62.86,-68.11 94.01,-101.47 31.05,-33.4 60.57,-64.96 88.51,-94.66 27.94,-29.77 52.34,-55.09 73.21,-75.96 v 92.61 c 0,47.68 -0.32,94.13 -0.98,139.32 -0.71,45.19 -2.17,87.75 -4.47,127.69 9.08,-2.27 16.83,-3.39 23.16,-3.39 5.45,0 12.69,1.12 21.81,3.39 -0.91,-9.98 -1.95,-24.98 -3.06,-44.96 -1.13,-19.97 -2.3,-41.3 -3.4,-64.04 -1.17,-22.68 -2.14,-44.9 -3.08,-66.74 -0.91,-21.8 -1.37,-39.28 -1.37,-52.44 v -40.86 c 0,-15.44 0.14,-31.56 0.36,-48.35 0.2,-16.81 0.45,-33.72 0.69,-50.77 0.22,-17.01 0.44,-32.93 0.67,-47.68 0.19,-14.74 0.36,-27.58 0.36,-38.46 v -22.47 h -9.54 c -52.24,60.4 -107.89,122.25 -166.91,185.6"
             style="fill:#ffffff;fill-opacity:1;fill-rule:nonzero;stroke:none"
             id="path114"
             inkscape:connector-curvature="0" /><path
             d="m 3506.61,3099.02 c -10.18,8.14 -21.54,15.31 -34.07,21.46 -12.46,6.12 -26.35,11.13 -41.53,14.99 -15.25,3.85 -31.44,5.78 -48.71,5.78 -28.16,0 -54.38,-4.32 -78.68,-12.97 -24.3,-8.62 -45.4,-21.88 -63.34,-39.82 -17.91,-17.98 -31.99,-40.65 -42.24,-68.12 -10.2,-27.48 -15.33,-60.08 -15.33,-97.72 0,-33.17 4.56,-63.13 13.64,-89.95 9.08,-26.82 22.35,-49.37 39.88,-67.74 17.42,-18.41 38.8,-32.61 63.98,-42.59 25.21,-9.98 53.74,-15 85.5,-15 9.54,0 19.5,0.47 29.95,1.36 10.45,0.93 20.54,2.29 30.34,4.1 9.73,1.83 18.81,4.08 27.22,6.81 8.4,2.73 15.55,5.9 21.45,9.54 0.49,13.64 0.81,27.24 1.04,40.86 0.23,13.65 0.33,27.47 0.33,41.57 0,15.88 -0.33,31.77 -1.01,47.68 -0.68,15.85 -1.47,31.08 -2.4,45.6 11.35,-2.25 22.25,-3.37 32.74,-3.37 4.96,0 9.99,0.23 14.95,0.65 5,0.47 9.77,1.36 14.31,2.72 -0.9,-10.43 -1.58,-26.86 -2.04,-49.36 -0.45,-22.49 -0.65,-52.1 -0.65,-88.91 0,-9.07 0.06,-18.25 0.3,-27.54 0.22,-9.35 0.35,-18.52 0.35,-27.62 -9.54,-3.62 -21.45,-7.34 -35.79,-11.22 -14.28,-3.87 -29.5,-7.05 -45.62,-9.55 -16.13,-2.5 -32.25,-4.75 -48.32,-6.81 -16.15,-2.06 -30.82,-3.08 -43.96,-3.08 -40.4,0 -76.87,4.91 -109.32,14.68 -32.48,9.77 -60.06,24.85 -82.77,45.28 -22.69,20.45 -40.17,45.86 -52.43,76.3 -12.31,30.4 -18.4,65.61 -18.4,105.59 0,38.57 6.32,72.94 19.08,103.16 12.68,30.21 30.65,55.77 53.83,76.66 23.13,20.86 51.17,36.75 84.1,47.65 32.9,10.89 69.33,16.37 109.31,16.37 23.14,0 43.68,-1.3 61.66,-3.75 17.93,-2.49 33.8,-5.82 47.66,-9.9 13.86,-4.08 25.99,-8.42 36.48,-12.95 10.41,-4.54 19.72,-8.85 27.9,-12.91 -3.64,-6.37 -6.92,-14.55 -9.87,-24.51 -2.99,-10.01 -4.9,-19.34 -5.81,-27.97 h -8.14 c -6.81,8.19 -15.38,16.37 -25.57,24.55"
             style="fill:#ffffff;fill-opacity:1;fill-rule:nonzero;stroke:none"
             id="path116"
             inkscape:connector-curvature="0" /><path
             d="m 3016.55,2126.94 c 0,0 266.76,298.77 -178.94,350.2 0,0 458.9,-13.67 188.23,-356.97 l -9.29,6.77"
             style="fill:#71c835;fill-opacity:1;fill-rule:nonzero;stroke:none"
             id="path118"
             inkscape:connector-curvature="0" /><path
             d="m 3086.74,2247.02 c 0,0 -47.83,1.62 -77.52,63.67 0,0 75.93,-0.03 85.5,-24.1 9.44,-24.06 -7.98,-39.57 -7.98,-39.57"
             style="fill:#71c835;fill-opacity:1;fill-rule:nonzero;stroke:none"
             id="path120"
             inkscape:connector-curvature="0" /><path
             d="m 3091.18,2336.92 c 0,0 -36.37,-5.29 -67.32,37.57 0,0 57.46,10.34 67.91,-6.57 10.48,-16.92 -0.59,-31 -0.59,-31"
             style="fill:#71c835;fill-opacity:1;fill-rule:nonzero;stroke:none"
             id="path122"
             inkscape:connector-curvature="0" /><path
             d="m 3043.32,2410.77 c 0,0 -17.26,-15.06 -47.82,-3.1 0,0 26.5,24.82 37.66,19.47 11.14,-5.27 10.16,-16.37 10.16,-16.37"
             style="fill:#71c835;fill-opacity:1;fill-rule:nonzero;stroke:none"
             id="path124"
             inkscape:connector-curvature="0" /><path
             d="m 3098.36,2300.06 c 0,0 37.31,29.9 100.25,2.19 0,0 -57.61,-49.47 -80.49,-37.38 -22.85,12.07 -19.76,35.19 -19.76,35.19"
             style="fill:#71c835;fill-opacity:1;fill-rule:nonzero;stroke:none"
             id="path126"
             inkscape:connector-curvature="0" /><path
             d="m 3075.35,2394.93 c 0,0 24.2,27.72 75.61,15.42 0,0 -36.9,-45.28 -55.81,-39.31 -18.96,6.02 -19.8,23.89 -19.8,23.89"
             style="fill:#71c835;fill-opacity:1;fill-rule:nonzero;stroke:none"
             id="path128"
             inkscape:connector-curvature="0" /><path
             d="m 3026.39,2417.28 c 0,0 -8.08,21.38 13.69,45.97 0,0 14.08,-33.45 5.29,-42.13 -8.9,-8.6 -18.98,-3.84 -18.98,-3.84"
             style="fill:#71c835;fill-opacity:1;fill-rule:nonzero;stroke:none"
             id="path130"
             inkscape:connector-curvature="0" /><path
             d="m 2743.09,2188.05 c 0,0 85.66,140.86 182.32,93.87 96.63,-46.95 71.74,-52.44 102.15,-60.71 30.37,-8.31 46.91,-5.54 46.91,-5.54 0,0 -71.77,-46.99 -91.04,-60.75 -19.38,-13.85 -118.79,-251.32 -162.99,-317.64 C 2776.21,1771 2569.1,1693.68 2439.35,1655 2309.52,1616.35 2254.26,1569.42 2199,1497.61 c -55.22,-71.8 -66.23,-113.24 -66.23,-113.24 0,0 35.93,237.57 292.79,320.37 256.78,82.87 342.38,74.57 474.93,414.28 0,0 5.55,30.35 46.98,60.76 l 58.67,20.86 c 0,0 -80.44,84.01 -263.05,-12.59"
             style="fill:#ffffff;fill-opacity:1;fill-rule:nonzero;stroke:none"
             id="path132"
             inkscape:connector-curvature="0" /><path
             d="m 2663.82,2192.95 c 0,0 -124.28,78.95 -188.65,168.82 -64.35,89.83 -220.09,83.4 -273.31,117.89 -53.25,34.43 -220.81,165.66 -220.81,165.66 0,0 136.8,-202.92 258.83,-231.48 122.11,-28.51 189.28,-59.12 219.68,-92.51 30.43,-33.42 140.65,-120.84 204.26,-128.38"
             style="fill:#ffffff;fill-opacity:1;fill-rule:nonzero;stroke:none"
             id="path134"
             inkscape:connector-curvature="0" /><path
             d="m 2222.17,2327.85 c 5.91,-0.32 -11.1,3.7 -16.45,5.61 -230.57,82.47 -218.34,252.17 -218.34,252.17 0,0 -82.71,-241.17 234.79,-257.78"
             style="fill:#ffffff;fill-opacity:1;fill-rule:nonzero;stroke:none"
             id="path136"
             inkscape:connector-curvature="0" /><path
             d="m 2416.89,2173.99 c 7.43,1.53 -14.96,1 -22.22,1.63 -312.67,27.71 -352.33,242.08 -352.33,242.08 0,0 -24.53,-325.81 374.55,-243.71"
             style="fill:#ffffff;fill-opacity:1;fill-rule:nonzero;stroke:none"
             id="path138"
             inkscape:connector-curvature="0" /><path
             d="m 2575.07,1988.25 c 7.86,2.19 -16.29,-0.06 -24.17,0.07 -340.02,6.18 -399.2,234.86 -399.2,234.86 0,0 -1.72,-354.04 423.37,-234.93"
             style="fill:#ffffff;fill-opacity:1;fill-rule:nonzero;stroke:none"
             id="path140"
             inkscape:connector-curvature="0" /><path
             d="m 898.438,3183.06 c -20.215,0.1 -40.172,11.43 -35.625,50.63 4.57,39.18 20.925,42.64 21.218,66.83 0.324,24.22 14.016,42.64 14.016,42.64 0,0 7.305,-36.21 26.836,-69.14 7.008,-11.82 30.144,-91.27 -26.445,-90.96"
             style="fill:#ffffff;fill-opacity:1;fill-rule:nonzero;stroke:none"
             id="path142"
             inkscape:connector-curvature="0" /><path
             d="m 898.633,3177.81 c -10.774,0.07 -21.383,6.09 -18.949,26.96 2.433,20.89 11.125,22.72 11.293,35.6 0.16,12.9 7.429,22.74 7.429,22.74 0,0 3.93,-19.26 14.344,-36.85 3.695,-6.28 16.027,-48.61 -14.117,-48.45"
             style="fill:#7d161a;fill-opacity:1;fill-rule:nonzero;stroke:none"
             id="path144"
             inkscape:connector-curvature="0" /><path
             d="m 1216.65,2458.71 153.84,-334.99 c 0,0 -23.11,-11.82 -21.54,-34.75 1.58,-22.89 4.18,-26.85 4.18,-26.85 0,0 5.32,1.74 0,0 -5.29,-1.69 14.37,3.29 -2.31,-9.86 -1.75,-1.4 2.31,9.86 2.31,9.86 0,0 10.25,-31.93 24.01,-41.99 13.82,-10.07 40.59,-62.99 40.59,-62.99 l -282.68,49.24 -10.84,17.94 c 0,0 4.29,50.96 5.91,58.97 2.62,13 4.83,34.72 4.83,34.72 0,0 -31.18,20.73 -28.46,26.35 2.73,5.61 15.68,36.08 5.16,48.08 -10.52,11.97 -21.64,12.66 -25.05,15.91 0,0 -11.75,10.83 -12.81,23.42 -1.08,12.59 -3.41,32.4 -3.41,32.4 0,0 -3.7,-48.88 -9.61,-57.14 -5.87,-8.27 -24.4,-4.2 -25.7,-26.85 -1.29,-22.63 16.72,-40.64 16.72,-40.64 l -16.72,-22.57 -3.04,-16.01 9.18,-35.01 c 0,0 -5.55,-14.89 -2.11,-17.41 3.44,-2.53 -4.31,-38.19 -3.7,-39.72 L 846.293,1883.53 c 0,0 37.254,63 39.719,71.27 2.5,8.27 15.414,35.06 16.222,43.53 0.743,8.4 12.786,45.02 12.235,53.17 -0.489,8.14 39.715,160.07 45.457,176.56 5.742,16.48 64.804,240.29 67.914,251.06 3.08,10.76 6.85,14.25 6.85,14.25 4.28,4.72 3.27,17.97 3.04,21.3 -0.25,3.32 -8.76,12.36 -3.37,23.39 5.42,11.07 6.36,15.35 6.85,20.8 0.48,5.45 1.13,11.99 1.13,11.99 l -6.03,0.57 0.84,3.19 5.71,2.23 -0.78,9.42 4.35,-12.49 2.82,0.88 0.53,-6.12 -3.77,0.9 c 0,0 0.23,-15.42 0.94,-19.88 0.68,-4.44 10.19,-8.63 9.99,-16.84 -0.16,-8.21 -7.49,-16.39 -7.91,-20.74 -0.39,-4.34 4.96,-18 4.96,-18 l 145.31,-27.55 0.32,15.39 c 0,0 -8.17,6.77 -6.59,12.13 1.56,5.35 4.64,8.9 6.13,13.18 1.49,4.26 -0.52,12.69 1.43,15.82 1.91,3.13 0.45,5.42 0.45,5.42 l -5.32,1.02 0.49,5.48 5.52,0.6 0.71,7.65 3.63,-8.6 4.91,-0.44 -1.76,-6.98 -4.32,0.93 c 0,0 0.1,-11 0.36,-14.31 0.27,-3.33 0.94,-7.79 0.94,-7.79 0,0 8.31,-5.14 8.27,-11.76 -0.03,-6.57 -7.29,-14.15 -7.29,-14.15 l 0.36,-13.79 9.11,-7.51"
             style="fill:#7d161a;fill-opacity:1;fill-rule:nonzero;stroke:none"
             id="path146"
             inkscape:connector-curvature="0" /><path
             d="m 1216.65,2458.71 153.84,-334.99 c 0,0 -23.11,-11.82 -21.54,-34.75 1.58,-22.89 4.18,-26.85 4.18,-26.85 0,0 5.32,1.74 0,0 -5.29,-1.69 14.37,3.29 -2.31,-9.86 -1.75,-1.4 2.31,9.86 2.31,9.86 0,0 10.25,-31.93 24.01,-41.99 13.82,-10.07 40.59,-62.99 40.59,-62.99 l -282.68,49.24 -10.84,17.94 c 0,0 4.29,50.96 5.91,58.97 2.62,13 4.83,34.72 4.83,34.72 0,0 -31.18,20.73 -28.46,26.35 2.73,5.61 15.68,36.08 5.16,48.08 -10.52,11.97 -21.64,12.66 -25.05,15.91 0,0 -11.75,10.83 -12.81,23.42 -1.08,12.59 -3.41,32.4 -3.41,32.4 0,0 -3.7,-48.88 -9.61,-57.14 -5.87,-8.27 -24.4,-4.2 -25.7,-26.85 -1.29,-22.63 16.72,-40.64 16.72,-40.64 l -16.72,-22.57 -3.04,-16.01 9.18,-35.01 c 0,0 -5.55,-14.89 -2.11,-17.41 3.44,-2.53 -4.31,-38.19 -3.7,-39.72 L 846.293,1883.53 c 0,0 37.254,63 39.719,71.27 2.5,8.27 15.414,35.06 16.222,43.53 0.743,8.4 12.786,45.02 12.235,53.17 -0.489,8.14 39.715,160.07 45.457,176.56 5.742,16.48 64.804,240.29 67.914,251.06 3.08,10.76 6.85,14.25 6.85,14.25 4.28,4.72 3.27,17.97 3.04,21.3 -0.25,3.32 -8.76,12.36 -3.37,23.39 5.42,11.07 6.36,15.35 6.85,20.8 0.48,5.45 1.13,11.99 1.13,11.99 l -6.03,0.57 0.84,3.19 5.71,2.23 -0.78,9.42 4.35,-12.49 2.82,0.88 0.53,-6.12 -3.77,0.9 c 0,0 0.23,-15.42 0.94,-19.88 0.68,-4.44 10.19,-8.63 9.99,-16.84 -0.16,-8.21 -7.49,-16.39 -7.91,-20.74 -0.39,-4.34 4.96,-18 4.96,-18 l 145.31,-27.55 0.32,15.39 c 0,0 -8.17,6.77 -6.59,12.13 1.56,5.35 4.64,8.9 6.13,13.18 1.49,4.26 -0.52,12.69 1.43,15.82 1.91,3.13 0.45,5.42 0.45,5.42 l -5.32,1.02 0.49,5.48 5.52,0.6 0.71,7.65 3.63,-8.6 4.91,-0.44 -1.76,-6.98 -4.32,0.93 c 0,0 0.1,-11 0.36,-14.31 0.27,-3.33 0.94,-7.79 0.94,-7.79 0,0 8.31,-5.14 8.27,-11.76 -0.03,-6.57 -7.29,-14.15 -7.29,-14.15 l 0.36,-13.79 z"
             style="fill:none;stroke:#ffffff;stroke-width:8.30659008;stroke-linecap:butt;stroke-linejoin:miter;stroke-miterlimit:4;stroke-dasharray:none;stroke-opacity:1"
             id="path148"
             inkscape:connector-curvature="0" /></g></g><g
         id="g150"><g
           id="g152"
           clip-path="url(#clipPath156)"><path
             d="m 1426.23,1949.48 -4.09,9.16 -32.71,2.33 -8.79,0.66 1.65,23.8 -27.41,27.27 -38.81,40.34 -9.96,13.03 74.73,13.12 37.61,-8.85 4.25,-7.86 -6.3,-11.83 2.98,-25.49 7.27,-12.46 -2.78,-10.43 3.63,-35.12 3.24,-11.87 -4.51,-5.8"
             style="fill:#ffffff;fill-opacity:1;fill-rule:nonzero;stroke:none"
             id="path158"
             inkscape:connector-curvature="0" /><path
             d="m 1426.23,1949.48 -4.09,9.16 -32.71,2.33 -8.79,0.66 1.65,23.8 -27.41,27.27 -38.81,40.34 -9.96,13.03 74.73,13.12 37.61,-8.85 4.25,-7.86 -6.3,-11.83 2.98,-25.49 7.27,-12.46 -2.78,-10.43 3.63,-35.12 3.24,-11.87 z"
             style="fill:none;stroke:#7d161a;stroke-width:8.30659008;stroke-linecap:butt;stroke-linejoin:miter;stroke-miterlimit:4;stroke-dasharray:none;stroke-opacity:1"
             id="path160"
             inkscape:connector-curvature="0" /><path
             d="m 1395.02,2048.07 -1.52,-21.06 10.18,-0.73 1.53,21.06 -10.19,0.73"
             style="fill:#7d161a;fill-opacity:1;fill-rule:nonzero;stroke:none"
             id="path162"
             inkscape:connector-curvature="0" /><path
             d="m 1370.91,2295.99 c 0,0 -0.1,0.54 -0.36,1.23 -0.58,1.37 -1.65,3.28 -3.37,2.32 -2.4,-1.46 -3.38,-6.31 -3.38,-6.31 0,0 -8.72,-2.19 -7.59,-3.12 1.2,-0.87 4.67,-3.59 5.25,-6.91 0.59,-3.29 -7.1,-2.3 -7.1,-2.3 l 9.12,-3.96 c 0,0 -0.72,-4.01 -1.04,-8.86 -0.36,-4.89 -4.73,-9.88 -4.73,-9.88 3.21,0.18 5.99,-4.88 5.99,-4.88 0,0 -0.94,-20.33 -2.07,-28.45 -1.1,-8.02 -4.32,-5.36 -4.87,-13.05 -0.59,-7.74 -4.45,-11.13 -4.45,-11.13 0,0 5.23,-6.47 6.26,-15.12 0.98,-8.63 -5.6,-15.48 -5.6,-15.48 l -5.71,-0.42 c -5.75,-0.41 -8.86,1.85 -25.96,-14.86 -17.1,-16.71 -10.2,-28.25 -7.08,-41.47 3.15,-13.29 23.55,-13.53 25.18,-18.54 1.72,-5.02 -33.81,-25.15 -33.75,-24.75 l 78.75,8.86 41.41,-8.63 c 0,-0.41 -43.91,19.94 -41.76,24.79 2.07,4.88 22.84,3.52 27.02,16.51 4.26,12.99 12.21,23.95 -3.82,41.93 -16.1,17.98 -19.47,15.94 -25.28,16.8 l -5.78,0.85 c 0,0 -6.19,7.33 -4.47,15.87 1.69,8.58 7.53,14.63 7.53,14.63 0,0 -3.7,3.65 -3.7,11.42 0.09,7.71 -3.44,5.29 -3.9,13.44 -0.52,8.13 0.2,28.47 0.2,28.47 0,0 3.18,4.82 6.49,4.45 0,0 -4.16,5.28 -4.02,10.17 0,4.88 -0.42,8.94 -0.42,8.94 l 9.57,3.21 c 0,0 -7.92,-0.39 -7.04,2.87 0.84,3.21 4.61,5.65 5.86,6.48 1.25,0.82 -7.46,3.68 -7.46,3.68 l -3.92,1.2"
             style="fill:#7d161a;fill-opacity:1;fill-rule:nonzero;stroke:none"
             id="path164"
             inkscape:connector-curvature="0" /><path
             d="m 1370.91,2295.99 c 0,0 -0.1,0.54 -0.36,1.23 -0.58,1.37 -1.65,3.28 -3.37,2.32 -2.4,-1.46 -3.38,-6.31 -3.38,-6.31 0,0 -8.72,-2.19 -7.59,-3.12 1.2,-0.87 4.67,-3.59 5.25,-6.91 0.59,-3.29 -7.1,-2.3 -7.1,-2.3 l 9.12,-3.96 c 0,0 -0.72,-4.01 -1.04,-8.86 -0.36,-4.89 -4.73,-9.88 -4.73,-9.88 3.21,0.18 5.99,-4.88 5.99,-4.88 0,0 -0.94,-20.33 -2.07,-28.45 -1.1,-8.02 -4.32,-5.36 -4.87,-13.05 -0.59,-7.74 -4.45,-11.13 -4.45,-11.13 0,0 5.23,-6.47 6.26,-15.12 0.98,-8.63 -5.6,-15.48 -5.6,-15.48 l -5.71,-0.42 c -5.75,-0.41 -8.86,1.85 -25.96,-14.86 -17.1,-16.71 -10.2,-28.25 -7.08,-41.47 3.15,-13.29 23.55,-13.53 25.18,-18.54 1.72,-5.02 -33.81,-25.15 -33.75,-24.75 l 78.75,8.86 41.41,-8.63 c 0,-0.41 -43.91,19.94 -41.76,24.79 2.07,4.88 22.84,3.52 27.02,16.51 4.26,12.99 12.21,23.95 -3.82,41.93 -16.1,17.98 -19.47,15.94 -25.28,16.8 l -5.78,0.85 c 0,0 -6.19,7.33 -4.47,15.87 1.69,8.58 7.53,14.63 7.53,14.63 0,0 -3.7,3.65 -3.7,11.42 0.09,7.71 -3.44,5.29 -3.9,13.44 -0.52,8.13 0.2,28.47 0.2,28.47 0,0 3.18,4.82 6.49,4.45 0,0 -4.16,5.28 -4.02,10.17 0,4.88 -0.42,8.94 -0.42,8.94 l 9.57,3.21 c 0,0 -7.92,-0.39 -7.04,2.87 0.84,3.21 4.61,5.65 5.86,6.48 1.25,0.82 -7.46,3.68 -7.46,3.68 z"
             style="fill:none;stroke:#ffffff;stroke-width:8.30659008;stroke-linecap:butt;stroke-linejoin:miter;stroke-miterlimit:4;stroke-dasharray:none;stroke-opacity:1"
             id="path166"
             inkscape:connector-curvature="0" /><path
             d="m 1079.92,2315.32 c 0,0 -0.13,0.47 -0.36,1.04 -0.49,1.16 -1.43,2.86 -2.85,1.98 -2.11,-1.21 -2.96,-5.37 -2.96,-5.37 0,0 -7.49,-1.93 -6.52,-2.72 1.04,-0.73 4.02,-3.1 4.55,-5.96 0.48,-2.82 -6.17,-1.99 -6.17,-1.99 l 7.85,-3.39 c 0,0 -0.62,-3.49 -0.91,-7.68 -0.29,-4.18 -4.08,-8.46 -4.08,-8.46 2.78,0.12 5.18,-4.29 5.18,-4.29 0,0 -0.81,-17.47 -1.75,-24.42 -0.94,-6.97 -3.77,-4.68 -4.19,-11.33 -0.48,-6.64 -3.85,-9.54 -3.85,-9.54 0,0 4.51,-5.62 5.38,-13.07 0.88,-7.42 -4.84,-13.38 -4.84,-13.38 l -4.93,-0.32 c -4.96,-0.38 -7.61,1.58 -22.32,-12.83 -14.8,-14.4 -8.82,-24.33 -6.1,-35.77 2.7,-11.45 20.22,-11.61 21.67,-15.92 1.5,-4.37 -14.08,-20.64 -26.64,-23.84 l 39.27,11.44 33.71,0.23 38.81,-2.79 c 0,-0.35 -40.33,9.63 -38.51,13.85 1.81,4.15 11.58,4.35 15.21,15.57 3.63,11.17 10.45,20.61 -3.37,36.13 -13.86,15.48 -16.75,13.75 -21.81,14.49 l -4.93,0.74 c 0,0 -5.36,6.33 -3.89,13.7 1.49,7.35 6.52,12.56 6.52,12.56 0,0 -3.21,3.19 -3.18,9.85 0.04,6.66 -2.99,4.57 -3.41,11.6 -0.42,7.04 0.16,24.54 0.16,24.54 0,0 2.76,4.16 5.65,3.82 0,0 -3.54,4.56 -3.54,8.77 0.03,4.22 -0.32,7.71 -0.32,7.71 l 8.27,2.76 c 0,0 -6.81,-0.29 -6.06,2.53 0.71,2.76 3.95,4.85 5.03,5.55 1.06,0.7 -6.43,3.19 -6.43,3.19 l -3.34,1.02"
             style="fill:#7d161a;fill-opacity:1;fill-rule:nonzero;stroke:none"
             id="path168"
             inkscape:connector-curvature="0" /><path
             d="m 1079.92,2315.32 c 0,0 -0.13,0.47 -0.36,1.04 -0.49,1.16 -1.43,2.86 -2.85,1.98 -2.11,-1.21 -2.96,-5.37 -2.96,-5.37 0,0 -7.49,-1.93 -6.52,-2.72 1.04,-0.73 4.02,-3.1 4.55,-5.96 0.48,-2.82 -6.17,-1.99 -6.17,-1.99 l 7.85,-3.39 c 0,0 -0.62,-3.49 -0.91,-7.68 -0.29,-4.18 -4.08,-8.46 -4.08,-8.46 2.78,0.12 5.18,-4.29 5.18,-4.29 0,0 -0.81,-17.47 -1.75,-24.42 -0.94,-6.97 -3.77,-4.68 -4.19,-11.33 -0.48,-6.64 -3.85,-9.54 -3.85,-9.54 0,0 4.51,-5.62 5.38,-13.07 0.88,-7.42 -4.84,-13.38 -4.84,-13.38 l -4.93,-0.32 c -4.96,-0.38 -7.61,1.58 -22.32,-12.83 -14.8,-14.4 -8.82,-24.33 -6.1,-35.77 2.7,-11.45 20.22,-11.61 21.67,-15.92 1.5,-4.37 -14.08,-20.64 -26.64,-23.84 l 39.27,11.44 33.71,0.23 38.81,-2.79 c 0,-0.35 -40.33,9.63 -38.51,13.85 1.81,4.15 11.58,4.35 15.21,15.57 3.63,11.17 10.45,20.61 -3.37,36.13 -13.86,15.48 -16.75,13.75 -21.81,14.49 l -4.93,0.74 c 0,0 -5.36,6.33 -3.89,13.7 1.49,7.35 6.52,12.56 6.52,12.56 0,0 -3.21,3.19 -3.18,9.85 0.04,6.66 -2.99,4.57 -3.41,11.6 -0.42,7.04 0.16,24.54 0.16,24.54 0,0 2.76,4.16 5.65,3.82 0,0 -3.54,4.56 -3.54,8.77 0.03,4.22 -0.32,7.71 -0.32,7.71 l 8.27,2.76 c 0,0 -6.81,-0.29 -6.06,2.53 0.71,2.76 3.95,4.85 5.03,5.55 1.06,0.7 -6.43,3.19 -6.43,3.19 z"
             style="fill:none;stroke:#ffffff;stroke-width:8.30659008;stroke-linecap:butt;stroke-linejoin:miter;stroke-miterlimit:4;stroke-dasharray:none;stroke-opacity:1"
             id="path170"
             inkscape:connector-curvature="0" /><path
             d="m 1077.03,2092.75 7.95,-0.57 1.52,21 -9.76,0.71 0.29,-21.14"
             style="fill:#7d161a;fill-opacity:1;fill-rule:nonzero;stroke:none"
             id="path172"
             inkscape:connector-curvature="0" /><path
             d="m 1041.34,2093.11 12.14,1.3 -0.34,21.17 -12.55,-2.73 0.75,-19.74"
             style="fill:#7d161a;fill-opacity:1;fill-rule:nonzero;stroke:none"
             id="path174"
             inkscape:connector-curvature="0" /><path
             d="m 1016.61,2083.59 6.46,3.55 -1.75,19.04 -6.75,-4.94 2.04,-17.65"
             style="fill:#7d161a;fill-opacity:1;fill-rule:nonzero;stroke:none"
             id="path176"
             inkscape:connector-curvature="0" /><path
             d="m 1032.03,1983.76 26.57,14.68 75.57,-5.71 -3.9,21.6 -4.96,22.82 12.52,89.79 -13.33,6.3 -68.49,6.58 -30.93,-14.95 1.56,-43.49 -1.75,-53.43 -3.44,-42.16 10.58,-2.03"
             style="fill:#ffffff;fill-opacity:1;fill-rule:nonzero;stroke:none"
             id="path178"
             inkscape:connector-curvature="0" /><path
             d="m 1032.03,1983.76 26.57,14.68 75.57,-5.71 -3.9,21.6 -4.96,22.82 12.52,89.79 -13.33,6.3 -68.49,6.58 -30.93,-14.95 1.56,-43.49 -1.75,-53.43 -3.44,-42.16 z"
             style="fill:none;stroke:#7d161a;stroke-width:8.30659008;stroke-linecap:butt;stroke-linejoin:miter;stroke-miterlimit:4;stroke-dasharray:none;stroke-opacity:1"
             id="path180"
             inkscape:connector-curvature="0" /><path
             d="m 878.32,2166.29 c 0,0 -0.097,0.46 -0.324,1.06 -0.555,1.2 -1.492,2.92 -2.953,2.06 -2.172,-1.3 -3.051,-5.58 -3.051,-5.58 0,0 -7.691,-1.96 -6.648,-2.76 1.004,-0.77 4.086,-3.2 4.605,-6.09 0.485,-2.92 -6.297,-2.09 -6.297,-2.09 l 8.047,-3.48 c 0,0 -0.582,-3.56 -0.906,-7.84 -0.359,-4.28 -4.223,-8.75 -4.223,-8.75 2.922,0.21 5.325,-4.31 5.325,-4.31 0,0 -0.809,-17.98 -1.817,-25.12 -0.973,-7.18 -3.828,-4.78 -4.316,-11.6 -0.418,-6.84 -3.926,-9.83 -3.926,-9.83 0,0 4.609,-5.76 5.516,-13.36 0.91,-7.65 -4.93,-13.74 -4.93,-13.74 l -5.063,-0.35 c -5.093,-0.36 -7.851,1.62 -22.972,-13.16 -15.117,-14.78 -8.989,-24.98 -6.199,-36.71 2.726,-11.73 20.8,-11.96 22.261,-16.39 1.492,-4.44 -11.586,-10.69 -11.554,-10.36 l 65.058,6.52 c -0.031,-0.35 -15.894,-0.21 -14.082,4.09 1.914,4.31 20.281,3.11 24.012,14.62 3.699,11.48 10.707,21.18 -3.473,37.12 -14.211,15.89 -17.195,14.08 -22.324,14.87 l -5.125,0.73 c 0,0 -5.484,6.51 -3.93,14.05 1.528,7.54 6.621,12.9 6.621,12.9 0,0 -3.273,3.3 -3.211,10.11 0.032,6.83 -3.05,4.67 -3.507,11.89 -0.454,7.23 0.168,25.18 0.168,25.18 0,0 2.851,4.31 5.804,3.93 0,0 -3.668,4.69 -3.633,9.03 0.036,4.32 -0.355,7.9 -0.355,7.9 l 8.5,2.82 c 0,0 -6.977,-0.32 -6.23,2.57 0.746,2.88 4.023,5.01 5.164,5.74 1.097,0.7 -6.559,3.27 -6.559,3.27 l -3.473,1.06"
             style="fill:#7d161a;fill-opacity:1;fill-rule:nonzero;stroke:none"
             id="path182"
             inkscape:connector-curvature="0" /><path
             d="m 878.32,2166.29 c 0,0 -0.097,0.46 -0.324,1.06 -0.555,1.2 -1.492,2.92 -2.953,2.06 -2.172,-1.3 -3.051,-5.58 -3.051,-5.58 0,0 -7.691,-1.96 -6.648,-2.76 1.004,-0.77 4.086,-3.2 4.605,-6.09 0.485,-2.92 -6.297,-2.09 -6.297,-2.09 l 8.047,-3.48 c 0,0 -0.582,-3.56 -0.906,-7.84 -0.359,-4.28 -4.223,-8.75 -4.223,-8.75 2.922,0.21 5.325,-4.31 5.325,-4.31 0,0 -0.809,-17.98 -1.817,-25.12 -0.973,-7.18 -3.828,-4.78 -4.316,-11.6 -0.418,-6.84 -3.926,-9.83 -3.926,-9.83 0,0 4.609,-5.76 5.516,-13.36 0.91,-7.65 -4.93,-13.74 -4.93,-13.74 l -5.063,-0.35 c -5.093,-0.36 -7.851,1.62 -22.972,-13.16 -15.117,-14.78 -8.989,-24.98 -6.199,-36.71 2.726,-11.73 20.8,-11.96 22.261,-16.39 1.492,-4.44 -11.586,-10.69 -11.554,-10.36 l 65.058,6.52 c -0.031,-0.35 -15.894,-0.21 -14.082,4.09 1.914,4.31 20.281,3.11 24.012,14.62 3.699,11.48 10.707,21.18 -3.473,37.12 -14.211,15.89 -17.195,14.08 -22.324,14.87 l -5.125,0.73 c 0,0 -5.484,6.51 -3.93,14.05 1.528,7.54 6.621,12.9 6.621,12.9 0,0 -3.273,3.3 -3.211,10.11 0.032,6.83 -3.05,4.67 -3.507,11.89 -0.454,7.23 0.168,25.18 0.168,25.18 0,0 2.851,4.31 5.804,3.93 0,0 -3.668,4.69 -3.633,9.03 0.036,4.32 -0.355,7.9 -0.355,7.9 l 8.5,2.82 c 0,0 -6.977,-0.32 -6.23,2.57 0.746,2.88 4.023,5.01 5.164,5.74 1.097,0.7 -6.559,3.27 -6.559,3.27 z"
             style="fill:none;stroke:#ffffff;stroke-width:8.30659008;stroke-linecap:butt;stroke-linejoin:miter;stroke-miterlimit:4;stroke-dasharray:none;stroke-opacity:1"
             id="path184"
             inkscape:connector-curvature="0" /><path
             d="m 868.91,1873.32 -7.625,-36.63 -31.476,-20.83 -4.184,32.04 -3.406,2.79 3.179,4.09 0.68,50.1 -6.906,9.14 6.293,2.06 1.523,36.68 -6.39,14.19 16.48,11.07 77.426,10.69 -54.875,-108.62 9.281,-6.77"
             style="fill:#ffffff;fill-opacity:1;fill-rule:nonzero;stroke:none"
             id="path186"
             inkscape:connector-curvature="0" /><path
             d="m 868.91,1873.32 -7.625,-36.63 -31.476,-20.83 -4.184,32.04 -3.406,2.79 3.179,4.09 0.68,50.1 -6.906,9.14 6.293,2.06 1.523,36.68 -6.39,14.19 16.48,11.07 77.426,10.69 -54.875,-108.62 z"
             style="fill:none;stroke:#7d161a;stroke-width:8.30659008;stroke-linecap:butt;stroke-linejoin:miter;stroke-miterlimit:4;stroke-dasharray:none;stroke-opacity:1"
             id="path188"
             inkscape:connector-curvature="0" /><path
             d="m 844.867,1930.75 1.426,20.07 6.102,4.25 -1.555,-21.89 -5.973,-2.43"
             style="fill:#7d161a;fill-opacity:1;fill-rule:nonzero;stroke:none"
             id="path190"
             inkscape:connector-curvature="0" /><path
             d="m 779.871,1637.61 8.406,-53.83 34.071,-48.87 1.136,15.95 -26.25,35.67 3.309,9.92 2.758,3.18 5.351,-13.93 15.645,-23.87 7.496,4.48 -15.641,29.03 5.227,8.91 6.226,3.75 6.04,-15.61 10.636,-5 5.453,-18.13 9.442,1.86 -7.008,19.94 -15.156,12.92 4.289,12.36 16.547,-2.03 3.73,-9.55 11.356,-6.76 2.984,-17.08 10.937,-0.79 -8.375,24.25 -8.824,9.07 1.035,14.3 13.789,2.38 1.79,-11.1 12.23,-5.9 13.629,-22.13 7.305,7.93 -10.352,20.16 -11.098,10.08 15.575,17.47 3.863,-17.18 9.148,-2.32 12.102,-19.46 9.379,1.02 -14.535,21.3 -3.731,18.87 c 0,0 8.985,7.77 8.922,6.97 -0.035,-0.82 11.906,-10.99 11.906,-10.99 l 12.563,-4.29 10.769,-24.42 6.52,7.14 -16.809,24.03 -7.718,12.36 18.75,14.72 3.281,-13.76 14.402,-2.73 2.567,-19.6 18.392,-5.54 0.75,10.05 -6.78,4.76 -4.45,18.89 -8.983,12.49 16.383,9.79 -1.04,-14.29 13.86,-5.21 6.55,-18.21 5.26,2.17 -5.42,18.96 6.78,0.36 -18.43,11.47 8.47,12.06 15.51,6.52 11.35,-55.76 13.76,2.4 -2.46,51.72 16.58,7.26 8.7,-8.22 -3.28,-46.25 12.65,-0.07 11.92,48.16 21.34,-8.28 2.24,-39.88 10.25,1.8 1.27,17.64 12.43,8.41 1.2,16.85 34.23,-5.82 -3.79,-52.99 11.16,2.6 1.62,22.68 7.46,9.6 4.64,17.41 34.85,-8.41 -1.2,-16.77 -7.79,-2.83 -1.97,-27.77 12.65,-0.06 2.01,27.74 14.57,15.04 23.39,-3.38 3.38,-23.89 -1.66,-22.7 8.47,-0.61 1.43,20.17 9.15,10.34 0.91,12.61 36.89,-4.31 -1.39,-19.37 -6.82,-7.1 -1.2,-16.81 10.48,-0.76 1.37,19.34 13.94,7.43 6.43,18.15 28.2,-7.95 -1.24,-17.63 -9.25,-11.17 2.45,-18.78 4.37,-3.65 6.79,23.17 11.8,11.79 1.08,15.15 33.68,-1.57 -1.34,-18.46 -14.3,0.99 -2.92,-29.34 11.16,2.55 5.45,17.34 9.8,6.95 7.98,17.15 17.52,-2.95 -1.75,-24.39 -14.76,-17.52 -6.01,-13.08 12.27,5.88 28.45,43.59 -1.55,49.11 8.96,6.97 -464.85,68.67 -265.069,-133.09"
             style="fill:#7d161a;fill-opacity:1;fill-rule:nonzero;stroke:none"
             id="path192"
             inkscape:connector-curvature="0" /><path
             d="m 1088,2084.65 -1.5,-21.05 10.19,-0.73 1.49,21.06 -10.18,0.72"
             style="fill:#7d161a;fill-opacity:1;fill-rule:nonzero;stroke:none"
             id="path194"
             inkscape:connector-curvature="0" /><path
             d="m 1044.36,2085.16 -1.5,-21.06 10.91,2.22 1.55,21.06 -10.96,-2.22"
             style="fill:#7d161a;fill-opacity:1;fill-rule:nonzero;stroke:none"
             id="path196"
             inkscape:connector-curvature="0" /><path
             d="m 814.301,1542.33 -27.321,49.74 -7.109,51.9 56.914,22.22"
             style="fill:none;stroke:#ffffff;stroke-width:8.30659008;stroke-linecap:butt;stroke-linejoin:miter;stroke-miterlimit:4;stroke-dasharray:none;stroke-opacity:1"
             id="path198"
             inkscape:connector-curvature="0" /><path
             d="m 1443.33,1711.87 56.13,-8.31 v -62.07 l -25.5,-39.11"
             style="fill:none;stroke:#ffffff;stroke-width:8.30659008;stroke-linecap:butt;stroke-linejoin:miter;stroke-miterlimit:4;stroke-dasharray:none;stroke-opacity:1"
             id="path200"
             inkscape:connector-curvature="0" /><path
             d="m 679.938,1333.02 120.738,-17.11 c 0,0 -70.25,177.72 -90.078,256.38 -19.828,78.61 -39.52,159.82 -39.52,159.82 l -276.422,83.73 -11.355,-35.25 c 0,0 208.148,-369.02 296.637,-447.57"
             style="fill:#7d161a;fill-opacity:1;fill-rule:nonzero;stroke:none"
             id="path202"
             inkscape:connector-curvature="0" /><path
             d="m 679.938,1333.02 120.738,-17.11 c 0,0 -70.25,177.72 -90.078,256.38 -19.828,78.61 -39.52,159.82 -39.52,159.82 l -276.422,83.73 -11.355,-35.25 c 0,0 208.148,-369.02 296.637,-447.57 z"
             style="fill:none;stroke:#ffffff;stroke-width:8.30659008;stroke-linecap:butt;stroke-linejoin:miter;stroke-miterlimit:4;stroke-dasharray:none;stroke-opacity:1"
             id="path204"
             inkscape:connector-curvature="0" /></g></g><path
         d="M 3889.26,607.07 H 163.852 V 3378.43 H 3889.26 Z"
         style="fill:none;stroke:#ffffff;stroke-width:8.30659008;stroke-linecap:butt;stroke-linejoin:miter;stroke-miterlimit:4;stroke-dasharray:none;stroke-opacity:1"
         id="path206"
         inkscape:connector-curvature="0" /><path
         d="M 36.4023,612.461 H 351.785 V 3374.23 H 36.4023 V 612.461"
         style="fill:#7d161a;fill-opacity:1;fill-rule:nonzero;stroke:none"
         id="path208"
         inkscape:connector-curvature="0" /><path
         d="M 36.3281,610.82 H 3663.03 V 714.762 H 36.3281 V 610.82"
         style="fill:#7d161a;fill-opacity:1;fill-rule:nonzero;stroke:none"
         id="path210"
         inkscape:connector-curvature="0" /><path
         d="M 36.3281,3363.61 H 3778.94 v 73.75 H 36.3281 v -73.75"
         style="fill:#7d161a;fill-opacity:1;fill-rule:nonzero;stroke:none"
         id="path212"
         inkscape:connector-curvature="0" /><path
         d="M 3852.67,0 H 0 V 612.461 H 3852.67 V 0"
         style="fill:#ffffff;fill-opacity:1;fill-rule:nonzero;stroke:none"
         id="path214"
         inkscape:connector-curvature="0" /></g></g></svg>
